<svg width="442" height="267" viewBox="0 0 442 267" fill="none" xmlns="http://www.w3.org/2000/svg">
<rect width="442" height="267" fill="#FFF9F9"/>
<rect x="52.0398" y="66.6169" width="61.0074" height="17.4463" rx="8.72314" fill="#E2EEF6"/>
<path d="M65.6267 77.4436H64.9313V71.7283H65.7454L67.5685 74.6199C67.984 75.2898 68.3232 75.8918 68.5861 76.4769L68.6115 76.4684C68.5437 75.7053 68.5267 75.0099 68.5267 74.1196V71.7283H69.222V77.4436H68.4758L66.6612 74.5436C66.2626 73.9076 65.881 73.2547 65.6012 72.6356L65.5758 72.6441C65.6182 73.3649 65.6267 74.0517 65.6267 75.0015V77.4436ZM70.019 73.3394H70.8331L71.7235 75.7646C71.8252 76.036 71.927 76.3582 71.9948 76.6041H72.0118C72.0881 76.3582 72.1729 76.0445 72.2746 75.7477L73.0887 73.3394H73.8773L72.758 76.2649C72.2238 77.6726 71.8591 78.3848 71.3504 78.8343C70.9773 79.148 70.6211 79.2752 70.4346 79.3091L70.248 78.6901C70.4346 78.6308 70.6805 78.512 70.9009 78.3255C71.1044 78.1644 71.3504 77.8761 71.5284 77.4945C71.5623 77.4182 71.5878 77.3588 71.5878 77.3164C71.5878 77.274 71.5708 77.2147 71.5284 77.1214L70.019 73.3394ZM74.2236 77.2486L74.4017 76.6889C74.6307 76.8246 75.0207 76.9772 75.3938 76.9772C75.928 76.9772 76.1824 76.7144 76.1824 76.3667C76.1824 76.0105 75.9704 75.824 75.4277 75.6205C74.6815 75.3491 74.3339 74.9506 74.3339 74.4588C74.3339 73.7973 74.8766 73.2547 75.75 73.2547C76.1655 73.2547 76.5301 73.3649 76.7506 73.509L76.5725 74.0517C76.4114 73.95 76.1146 73.8058 75.733 73.8058C75.2921 73.8058 75.0546 74.0602 75.0546 74.3655C75.0546 74.7047 75.2921 74.8573 75.8263 75.0693C76.5301 75.3322 76.9032 75.6883 76.9032 76.2988C76.9032 77.0281 76.3351 77.5369 75.3769 77.5369C74.9274 77.5369 74.5119 77.4182 74.2236 77.2486ZM81.3761 74.4588V76.8415C81.3761 77.7913 81.1811 78.3594 80.791 78.724C80.384 79.0887 79.8074 79.2159 79.2901 79.2159C78.7983 79.2159 78.2556 79.0971 77.9249 78.8767L78.1114 78.3C78.3828 78.4781 78.8068 78.6308 79.3155 78.6308C80.0787 78.6308 80.6384 78.2322 80.6384 77.1892V76.7398H80.6214C80.4009 77.1214 79.9515 77.4266 79.3155 77.4266C78.298 77.4266 77.5687 76.5617 77.5687 75.4254C77.5687 74.0348 78.4761 73.2547 79.4258 73.2547C80.1381 73.2547 80.5197 73.6193 80.7062 73.9585H80.7232L80.7486 73.3394H81.41C81.3846 73.6278 81.3761 73.9669 81.3761 74.4588ZM80.6299 75.6968V74.9591C80.6299 74.8319 80.6214 74.7216 80.5875 74.6284C80.4518 74.1874 80.0957 73.8313 79.5445 73.8313C78.8322 73.8313 78.3234 74.4333 78.3234 75.383C78.3234 76.1886 78.7389 76.8585 79.536 76.8585C80.0024 76.8585 80.4179 76.5702 80.5705 76.0953C80.6129 75.9681 80.6299 75.824 80.6299 75.6968ZM81.6779 79.2328L81.5931 78.6477C81.9408 78.6223 82.2291 78.529 82.4072 78.3255C82.6107 78.0965 82.6955 77.7743 82.6955 76.7907V73.3394H83.4417V77.079C83.4417 77.8761 83.3145 78.3933 82.9499 78.7664C82.6192 79.0971 82.0765 79.2328 81.6779 79.2328ZM83.0686 71.7198C83.3484 71.7198 83.5265 71.9318 83.5265 72.1862C83.5265 72.4321 83.3569 72.6441 83.0516 72.6441C82.7803 72.6441 82.6022 72.4321 82.6022 72.1862C82.6022 71.9318 82.7888 71.7198 83.0686 71.7198ZM87.9627 75.5272H85.0797C85.0966 76.5363 85.7326 76.9518 86.4873 76.9518C87.0215 76.9518 87.3522 76.8585 87.6235 76.7398L87.7592 77.274C87.4964 77.3927 87.0385 77.5369 86.3855 77.5369C85.122 77.5369 84.3674 76.6974 84.3674 75.4594C84.3674 74.2213 85.0966 73.2547 86.2922 73.2547C87.6405 73.2547 87.9882 74.4248 87.9882 75.1795C87.9882 75.3322 87.9797 75.4424 87.9627 75.5272ZM85.0881 74.993H87.2674C87.2759 74.5266 87.0724 73.7889 86.2329 73.7889C85.4697 73.7889 85.1475 74.4757 85.0881 74.993ZM88.9123 77.4436V74.6199C88.9123 74.1365 88.9038 73.721 88.8783 73.3394H89.5313L89.5652 74.1535H89.5906C89.7772 73.6023 90.2351 73.2547 90.7354 73.2547C90.8117 73.2547 90.8711 73.2631 90.9389 73.2716V73.9754C90.8626 73.9585 90.7863 73.9585 90.6845 73.9585C90.1588 73.9585 89.7857 74.3485 89.6839 74.9082C89.667 75.0099 89.6585 75.1371 89.6585 75.2559V77.4436H88.9123ZM91.7195 77.4436V74.6199C91.7195 74.1365 91.711 73.721 91.6856 73.3394H92.3385L92.3724 74.1535H92.3979C92.5844 73.6023 93.0423 73.2547 93.5426 73.2547C93.6189 73.2547 93.6783 73.2631 93.7461 73.2716V73.9754C93.6698 73.9585 93.5935 73.9585 93.4917 73.9585C92.966 73.9585 92.5929 74.3485 92.4911 74.9082C92.4742 75.0099 92.4657 75.1371 92.4657 75.2559V77.4436H91.7195ZM95.2729 77.4436H94.5267V73.3394H95.2729V77.4436ZM94.8998 71.7198C95.1712 71.7198 95.3577 71.9233 95.3577 72.1862C95.3577 72.4406 95.1797 72.6441 94.8829 72.6441C94.6115 72.6441 94.4334 72.4406 94.4334 72.1862C94.4334 71.9318 94.62 71.7198 94.8998 71.7198ZM100.025 74.4588V76.8415C100.025 77.7913 99.8297 78.3594 99.4396 78.724C99.0326 79.0887 98.456 79.2159 97.9387 79.2159C97.4469 79.2159 96.9042 79.0971 96.5735 78.8767L96.7601 78.3C97.0314 78.4781 97.4554 78.6308 97.9642 78.6308C98.7273 78.6308 99.287 78.2322 99.287 77.1892V76.7398H99.27C99.0496 77.1214 98.6001 77.4266 97.9642 77.4266C96.9466 77.4266 96.2174 76.5617 96.2174 75.4254C96.2174 74.0348 97.1247 73.2547 98.0744 73.2547C98.7867 73.2547 99.1683 73.6193 99.3548 73.9585H99.3718L99.3972 73.3394H100.059C100.033 73.6278 100.025 73.9669 100.025 74.4588ZM99.2785 75.6968V74.9591C99.2785 74.8319 99.27 74.7216 99.2361 74.6284C99.1004 74.1874 98.7443 73.8313 98.1931 73.8313C97.4808 73.8313 96.972 74.4333 96.972 75.383C96.972 76.1886 97.3875 76.8585 98.1846 76.8585C98.651 76.8585 99.0665 76.5702 99.2192 76.0953C99.2616 75.9681 99.2785 75.824 99.2785 75.6968Z" fill="#1E2761"/>
<rect x="133.633" y="66.6169" width="65.39" height="17.4463" rx="8.72314" fill="#E2EEF6"/>
<path d="M162.792 77.4436H162.096V71.7283H162.91L164.734 74.6199C165.149 75.2898 165.488 75.8918 165.751 76.4769L165.777 76.4684C165.709 75.7053 165.692 75.0099 165.692 74.1196V71.7283H166.387V77.4436H165.641L163.826 74.5436C163.428 73.9076 163.046 73.2547 162.766 72.6356L162.741 72.6441C162.783 73.3649 162.792 74.0517 162.792 75.0015V77.4436ZM167.184 73.3394H167.998L168.889 75.7646C168.99 76.036 169.092 76.3582 169.16 76.6041H169.177C169.253 76.3582 169.338 76.0445 169.44 75.7477L170.254 73.3394H171.042L169.923 76.2649C169.389 77.6726 169.024 78.3848 168.515 78.8343C168.142 79.148 167.786 79.2752 167.6 79.3091L167.413 78.6901C167.6 78.6308 167.846 78.512 168.066 78.3255C168.269 78.1644 168.515 77.8761 168.693 77.4945C168.727 77.4182 168.753 77.3588 168.753 77.3164C168.753 77.274 168.736 77.2147 168.693 77.1214L167.184 73.3394Z" fill="#1E2761"/>
<rect x="219.566" y="66.6169" width="90.273" height="17.4463" rx="8.72314" fill="#E2EEF6"/>
<path d="M246.299 75.6459H244.272L243.679 77.4436H242.916L244.866 71.7283H245.748L247.698 77.4436H246.91L246.299 75.6459ZM244.425 75.0693H246.155L245.587 73.4242C245.46 73.0511 245.375 72.712 245.29 72.3812H245.273C245.188 72.712 245.103 73.0681 244.985 73.4158L244.425 75.0693ZM249.228 71.423V75.2219H249.245C249.346 75.0778 249.482 74.8997 249.601 74.7556L250.813 73.3394H251.704L250.126 75.0269L251.933 77.4436H251.017L249.609 75.4763L249.228 75.9003V77.4436H248.49V71.423H249.228ZM252.634 72.5763L253.364 72.3558V73.3394H254.432V73.9076H253.364V76.1208C253.364 76.6296 253.508 76.9179 253.923 76.9179C254.127 76.9179 254.245 76.9009 254.356 76.867L254.39 77.4351C254.245 77.486 254.017 77.5369 253.728 77.5369C253.381 77.5369 253.101 77.4182 252.923 77.2231C252.719 76.9942 252.634 76.6296 252.634 76.1462V73.9076H251.998V73.3394H252.634V72.5763ZM256.018 77.4436H255.272V73.3394H256.018V77.4436ZM255.645 71.7198C255.916 71.7198 256.103 71.9233 256.103 72.1862C256.103 72.4406 255.925 72.6441 255.628 72.6441C255.357 72.6441 255.179 72.4406 255.179 72.1862C255.179 71.9318 255.365 71.7198 255.645 71.7198ZM256.751 73.3394H257.548L258.353 75.6374C258.489 76.019 258.599 76.3582 258.684 76.6974H258.709C258.803 76.3582 258.921 76.019 259.057 75.6374L259.854 73.3394H260.634L259.023 77.4436H258.311L256.751 73.3394ZM263.953 77.4436H263.215V73.9076H262.647V73.3394H263.215V73.1444C263.215 72.5678 263.351 72.0421 263.69 71.7114C263.97 71.44 264.343 71.3298 264.691 71.3298C264.962 71.3298 265.182 71.3891 265.327 71.4485L265.225 72.0251C265.115 71.9742 264.97 71.9318 264.75 71.9318C264.114 71.9318 263.953 72.483 263.953 73.119V73.3394H264.945V73.9076H263.953V77.4436ZM265.615 77.4436V74.6199C265.615 74.1365 265.606 73.721 265.581 73.3394H266.234L266.268 74.1535H266.293C266.48 73.6023 266.938 73.2547 267.438 73.2547C267.514 73.2547 267.574 73.2631 267.642 73.2716V73.9754C267.565 73.9585 267.489 73.9585 267.387 73.9585C266.861 73.9585 266.488 74.3485 266.387 74.9082C266.37 75.0099 266.361 75.1371 266.361 75.2559V77.4436H265.615ZM269.168 77.4436H268.422V73.3394H269.168V77.4436ZM268.795 71.7198C269.067 71.7198 269.253 71.9233 269.253 72.1862C269.253 72.4406 269.075 72.6441 268.778 72.6441C268.507 72.6441 268.329 72.4406 268.329 72.1862C268.329 71.9318 268.515 71.7198 268.795 71.7198ZM269.901 73.3394H270.698L271.503 75.6374C271.639 76.019 271.749 76.3582 271.834 76.6974H271.86C271.953 76.3582 272.072 76.019 272.207 75.6374L273.004 73.3394H273.784L272.173 77.4436H271.461L269.901 73.3394ZM275.238 77.4436H274.492V73.3394H275.238V77.4436ZM274.865 71.7198C275.136 71.7198 275.323 71.9233 275.323 72.1862C275.323 72.4406 275.145 72.6441 274.848 72.6441C274.577 72.6441 274.399 72.4406 274.399 72.1862C274.399 71.9318 274.585 71.7198 274.865 71.7198ZM276.479 77.4436V71.423H277.226V77.4436H276.479ZM278.483 77.4436V71.423H279.23V77.4436H278.483ZM281.234 77.4436H280.487V73.3394H281.234V77.4436ZM280.86 71.7198C281.132 71.7198 281.318 71.9233 281.318 72.1862C281.318 72.4406 281.14 72.6441 280.844 72.6441C280.572 72.6441 280.394 72.4406 280.394 72.1862C280.394 71.9318 280.581 71.7198 280.86 71.7198ZM285.985 74.4588V76.8415C285.985 77.7913 285.79 78.3594 285.4 78.724C284.993 79.0887 284.417 79.2159 283.899 79.2159C283.408 79.2159 282.865 79.0971 282.534 78.8767L282.721 78.3C282.992 78.4781 283.416 78.6308 283.925 78.6308C284.688 78.6308 285.248 78.2322 285.248 77.1892V76.7398H285.231C285.01 77.1214 284.561 77.4266 283.925 77.4266C282.907 77.4266 282.178 76.5617 282.178 75.4254C282.178 74.0348 283.085 73.2547 284.035 73.2547C284.747 73.2547 285.129 73.6193 285.315 73.9585H285.332L285.358 73.3394H286.019C285.994 73.6278 285.985 73.9669 285.985 74.4588ZM285.239 75.6968V74.9591C285.239 74.8319 285.231 74.7216 285.197 74.6284C285.061 74.1874 284.705 73.8313 284.154 73.8313C283.441 73.8313 282.933 74.4333 282.933 75.383C282.933 76.1886 283.348 76.8585 284.145 76.8585C284.612 76.8585 285.027 76.5702 285.18 76.0953C285.222 75.9681 285.239 75.824 285.239 75.6968Z" fill="#1E2761"/>
<rect x="330.382" y="66.6169" width="83.6182" height="17.4463" rx="8.72314" fill="#E2EEF6"/>
<path d="M351.849 71.7283H352.595V75.1202C352.595 76.3921 353.163 76.9348 353.926 76.9348C354.766 76.9348 355.317 76.3752 355.317 75.1202V71.7283H356.063V75.0693C356.063 76.8246 355.139 77.5369 353.901 77.5369C352.731 77.5369 351.849 76.8755 351.849 75.0947V71.7283ZM357.525 72.5763L358.254 72.3558V73.3394H359.322V73.9076H358.254V76.1208C358.254 76.6296 358.398 76.9179 358.814 76.9179C359.017 76.9179 359.136 76.9009 359.246 76.867L359.28 77.4351C359.136 77.486 358.907 77.5369 358.619 77.5369C358.271 77.5369 357.991 77.4182 357.813 77.2231C357.609 76.9942 357.525 76.6296 357.525 76.1462V73.9076H356.889V73.3394H357.525V72.5763ZM359.728 73.3394H360.525L361.331 75.6374C361.466 76.019 361.577 76.3582 361.661 76.6974H361.687C361.78 76.3582 361.899 76.019 362.034 75.6374L362.832 73.3394H363.612L362.001 77.4436H361.288L359.728 73.3394ZM365.066 77.4436H364.319V73.3394H365.066V77.4436ZM364.692 71.7198C364.964 71.7198 365.15 71.9233 365.15 72.1862C365.15 72.4406 364.972 72.6441 364.675 72.6441C364.404 72.6441 364.226 72.4406 364.226 72.1862C364.226 71.9318 364.413 71.7198 364.692 71.7198ZM367.044 71.423V75.2219H367.061C367.163 75.0778 367.299 74.8997 367.418 74.7556L368.63 73.3394H369.521L367.943 75.0269L369.749 77.4436H368.834L367.426 75.4763L367.044 75.9003V77.4436H366.307V71.423H367.044ZM370.422 77.4436V71.423H371.169V77.4436H370.422ZM375.725 75.5272H372.842C372.859 76.5363 373.495 76.9518 374.249 76.9518C374.784 76.9518 375.114 76.8585 375.386 76.7398L375.521 77.274C375.259 77.3927 374.801 77.5369 374.148 77.5369C372.884 77.5369 372.13 76.6974 372.13 75.4594C372.13 74.2213 372.859 73.2547 374.054 73.2547C375.403 73.2547 375.75 74.4248 375.75 75.1795C375.75 75.3322 375.742 75.4424 375.725 75.5272ZM372.85 74.993H375.03C375.038 74.5266 374.835 73.7889 373.995 73.7889C373.232 73.7889 372.91 74.4757 372.85 74.993ZM376.674 77.4436V74.6199C376.674 74.1365 376.666 73.721 376.641 73.3394H377.293L377.327 74.1535H377.353C377.539 73.6023 377.997 73.2547 378.498 73.2547C378.574 73.2547 378.633 73.2631 378.701 73.2716V73.9754C378.625 73.9585 378.548 73.9585 378.447 73.9585C377.921 73.9585 377.548 74.3485 377.446 74.9082C377.429 75.0099 377.421 75.1371 377.421 75.2559V77.4436H376.674ZM380.966 77.2486L381.144 76.6889C381.373 76.8246 381.763 76.9772 382.136 76.9772C382.67 76.9772 382.924 76.7144 382.924 76.3667C382.924 76.0105 382.712 75.824 382.17 75.6205C381.424 75.3491 381.076 74.9506 381.076 74.4588C381.076 73.7973 381.619 73.2547 382.492 73.2547C382.908 73.2547 383.272 73.3649 383.493 73.509L383.315 74.0517C383.153 73.95 382.857 73.8058 382.475 73.8058C382.034 73.8058 381.797 74.0602 381.797 74.3655C381.797 74.7047 382.034 74.8573 382.568 75.0693C383.272 75.3322 383.645 75.6883 383.645 76.2988C383.645 77.0281 383.077 77.5369 382.119 77.5369C381.669 77.5369 381.254 77.4182 380.966 77.2486ZM387.906 75.5272H385.023C385.04 76.5363 385.676 76.9518 386.431 76.9518C386.965 76.9518 387.296 76.8585 387.567 76.7398L387.703 77.274C387.44 77.3927 386.982 77.5369 386.329 77.5369C385.065 77.5369 384.311 76.6974 384.311 75.4594C384.311 74.2213 385.04 73.2547 386.236 73.2547C387.584 73.2547 387.932 74.4248 387.932 75.1795C387.932 75.3322 387.923 75.4424 387.906 75.5272ZM385.032 74.993H387.211C387.219 74.5266 387.016 73.7889 386.176 73.7889C385.413 73.7889 385.091 74.4757 385.032 74.993ZM392.366 74.4588V76.8415C392.366 77.7913 392.171 78.3594 391.781 78.724C391.374 79.0887 390.797 79.2159 390.28 79.2159C389.788 79.2159 389.246 79.0971 388.915 78.8767L389.102 78.3C389.373 78.4781 389.797 78.6308 390.306 78.6308C391.069 78.6308 391.628 78.2322 391.628 77.1892V76.7398H391.612C391.391 77.1214 390.942 77.4266 390.306 77.4266C389.288 77.4266 388.559 76.5617 388.559 75.4254C388.559 74.0348 389.466 73.2547 390.416 73.2547C391.128 73.2547 391.51 73.6193 391.696 73.9585H391.713L391.739 73.3394H392.4C392.375 73.6278 392.366 73.9669 392.366 74.4588ZM391.62 75.6968V74.9591C391.62 74.8319 391.612 74.7216 391.578 74.6284C391.442 74.1874 391.086 73.8313 390.535 73.8313C389.822 73.8313 389.314 74.4333 389.314 75.383C389.314 76.1886 389.729 76.8585 390.526 76.8585C390.993 76.8585 391.408 76.5702 391.561 76.0953C391.603 75.9681 391.62 75.824 391.62 75.6968Z" fill="#1E2761"/>
<path d="M133.793 75.3955C133.882 75.3069 133.882 75.1633 133.793 75.0747L132.35 73.6314C132.261 73.5429 132.118 73.5429 132.029 73.6314C131.94 73.72 131.94 73.8636 132.029 73.9522L133.312 75.2351L132.029 76.518C131.94 76.6066 131.94 76.7502 132.029 76.8388C132.118 76.9273 132.261 76.9273 132.35 76.8388L133.793 75.3955ZM113.379 75.2351V75.4619H133.633V75.2351V75.0083H113.379V75.2351Z" fill="#355770"/>
<path d="M219.437 75.3955C219.525 75.3069 219.525 75.1633 219.437 75.0747L217.994 73.6314C217.905 73.5429 217.761 73.5429 217.673 73.6314C217.584 73.72 217.584 73.8636 217.673 73.9522L218.956 75.2351L217.673 76.518C217.584 76.6066 217.584 76.7502 217.673 76.8388C217.761 76.9273 217.905 76.9273 217.994 76.8388L219.437 75.3955ZM199.023 75.2351V75.4619H219.277V75.2351V75.0083H199.023V75.2351Z" fill="#355770"/>
<path d="M330.253 75.3955C330.341 75.3069 330.341 75.1633 330.253 75.0747L328.809 73.6314C328.721 73.5429 328.577 73.5429 328.489 73.6314C328.4 73.72 328.4 73.8636 328.489 73.9522L329.771 75.2351L328.489 76.518C328.4 76.6066 328.4 76.7502 328.489 76.8388C328.577 76.9273 328.721 76.9273 328.809 76.8388L330.253 75.3955ZM309.839 75.2351V75.4619H330.092V75.2351V75.0083H309.839V75.2351Z" fill="#355770"/>
<circle cx="127.284" cy="147.304" r="36.2728" fill="#ECF4F9" stroke="#408EC6" stroke-width="0.380816"/>
<path d="M119.917 147.611V143.777H121.062V147.593C121.062 148.059 120.982 148.428 120.821 148.701C120.548 149.162 120.056 149.393 119.344 149.393C118.633 149.393 118.156 149.207 117.913 148.835C117.67 148.46 117.548 147.951 117.548 147.306V147.18H118.63V147.306C118.64 147.73 118.686 148.029 118.768 148.203C118.852 148.374 119.031 148.459 119.303 148.459C119.574 148.459 119.752 148.365 119.839 148.177C119.891 148.065 119.917 147.877 119.917 147.611ZM126.183 143.777V144.748H124.543V149.259H123.39V144.748H121.743V143.777H126.183ZM129.359 149.259H126.875V143.777H129.538C130.21 143.787 130.686 143.982 130.966 144.361C131.135 144.594 131.219 144.873 131.219 145.198C131.219 145.532 131.135 145.801 130.966 146.005C130.872 146.119 130.733 146.223 130.549 146.317C130.83 146.419 131.04 146.58 131.182 146.801C131.325 147.021 131.397 147.289 131.397 147.604C131.397 147.929 131.315 148.22 131.152 148.478C131.048 148.649 130.918 148.793 130.761 148.909C130.585 149.043 130.377 149.135 130.137 149.184C129.899 149.234 129.64 149.259 129.359 149.259ZM129.333 146.845H127.968V148.307H129.315C129.555 148.307 129.742 148.275 129.876 148.21C130.119 148.091 130.241 147.863 130.241 147.526C130.241 147.241 130.123 147.045 129.887 146.938C129.756 146.879 129.571 146.848 129.333 146.845ZM129.902 145.8C130.051 145.711 130.125 145.551 130.125 145.32C130.125 145.065 130.026 144.897 129.828 144.815C129.657 144.758 129.439 144.729 129.173 144.729H127.968V145.938H129.315C129.555 145.938 129.751 145.892 129.902 145.8ZM134.722 149.259H132.361V143.777H134.722C135.062 143.782 135.344 143.822 135.57 143.896C135.954 144.023 136.265 144.254 136.503 144.592C136.694 144.864 136.824 145.159 136.894 145.477C136.963 145.794 136.998 146.096 136.998 146.384C136.998 147.113 136.852 147.73 136.559 148.236C136.162 148.918 135.55 149.259 134.722 149.259ZM135.574 145.175C135.398 144.878 135.049 144.729 134.529 144.729H133.472V148.307H134.529C135.069 148.307 135.446 148.04 135.659 147.507C135.776 147.215 135.834 146.866 135.834 146.462C135.834 145.904 135.747 145.475 135.574 145.175Z" fill="#408EC6"/>
<circle cx="232.67" cy="147.685" r="36.6536" fill="#ECF4F9" stroke="#408EC6" stroke-width="0.380816"/>
<path d="M215.396 146.403V143.956H213.254V146.403H212.12V140.921H213.254V143.011H215.396V140.921H216.534V146.403H215.396ZM217.148 142.349H218.338L219.182 145.339L220.045 142.349H221.183L219.721 146.403H218.602L217.148 142.349ZM221.938 142.788C222.218 142.431 222.699 142.252 223.381 142.252C223.825 142.252 224.219 142.34 224.563 142.516C224.908 142.692 225.08 143.025 225.08 143.513V145.372C225.08 145.501 225.083 145.658 225.088 145.841C225.095 145.98 225.116 146.074 225.151 146.124C225.186 146.173 225.238 146.214 225.307 146.246V146.403H224.154C224.122 146.321 224.1 146.244 224.087 146.172C224.075 146.1 224.065 146.018 224.058 145.927C223.911 146.085 223.743 146.22 223.552 146.332C223.324 146.463 223.066 146.529 222.778 146.529C222.411 146.529 222.108 146.425 221.867 146.217C221.629 146.006 221.51 145.708 221.51 145.324C221.51 144.826 221.702 144.465 222.087 144.242C222.297 144.12 222.607 144.034 223.016 143.982L223.377 143.937C223.573 143.912 223.713 143.881 223.797 143.844C223.948 143.78 224.024 143.679 224.024 143.543C224.024 143.377 223.966 143.263 223.849 143.201C223.735 143.136 223.567 143.104 223.344 143.104C223.093 143.104 222.916 143.166 222.812 143.29C222.737 143.382 222.688 143.506 222.663 143.662H221.64C221.663 143.307 221.762 143.016 221.938 142.788ZM222.726 145.636C222.825 145.718 222.947 145.759 223.091 145.759C223.319 145.759 223.528 145.692 223.719 145.558C223.913 145.425 224.013 145.18 224.02 144.826V144.432C223.953 144.474 223.885 144.508 223.816 144.536C223.749 144.56 223.656 144.584 223.537 144.606L223.299 144.651C223.076 144.691 222.916 144.739 222.819 144.796C222.656 144.893 222.574 145.043 222.574 145.246C222.574 145.427 222.625 145.557 222.726 145.636ZM230 145.648V146.44L229.498 146.458C228.998 146.476 228.655 146.389 228.472 146.198C228.353 146.077 228.293 145.889 228.293 145.636V143.141H227.728V142.386H228.293V141.256H229.342V142.386H230V143.141H229.342V145.283C229.342 145.449 229.363 145.553 229.405 145.596C229.447 145.635 229.576 145.655 229.792 145.655C229.824 145.655 229.858 145.655 229.893 145.655C229.93 145.653 229.966 145.65 230 145.648ZM232.719 143.327C232.292 143.327 232.006 143.466 231.86 143.744C231.778 143.9 231.737 144.14 231.737 144.465V146.403H230.67V142.349H231.681V143.056C231.845 142.785 231.988 142.601 232.109 142.501C232.307 142.335 232.565 142.252 232.883 142.252C232.902 142.252 232.918 142.254 232.931 142.256C232.946 142.256 232.977 142.257 233.024 142.26V143.346C232.957 143.338 232.897 143.333 232.845 143.331C232.793 143.328 232.751 143.327 232.719 143.327ZM237.118 145.213C237.091 145.453 236.966 145.697 236.743 145.945C236.396 146.339 235.91 146.536 235.285 146.536C234.769 146.536 234.314 146.37 233.92 146.038C233.526 145.706 233.329 145.165 233.329 144.417C233.329 143.715 233.506 143.177 233.861 142.803C234.218 142.428 234.68 142.241 235.248 142.241C235.585 142.241 235.889 142.304 236.159 142.431C236.429 142.557 236.652 142.757 236.828 143.03C236.987 143.27 237.09 143.549 237.137 143.866C237.164 144.052 237.175 144.32 237.17 144.67H234.396C234.411 145.076 234.539 145.361 234.779 145.525C234.925 145.627 235.101 145.677 235.307 145.677C235.525 145.677 235.703 145.615 235.839 145.491C235.913 145.425 235.979 145.332 236.036 145.213H237.118ZM236.07 143.97C236.052 143.69 235.967 143.478 235.813 143.334C235.662 143.188 235.473 143.115 235.248 143.115C235.002 143.115 234.811 143.192 234.675 143.346C234.541 143.499 234.457 143.708 234.422 143.97H236.07ZM239.796 143.134C239.436 143.134 239.19 143.286 239.056 143.591C238.987 143.752 238.952 143.958 238.952 144.208V146.403H237.896V142.356H238.918V142.948C239.055 142.739 239.184 142.589 239.305 142.498C239.523 142.334 239.8 142.252 240.134 142.252C240.553 142.252 240.896 142.363 241.161 142.583C241.429 142.801 241.562 143.165 241.562 143.673V146.403H240.477V143.937C240.477 143.724 240.448 143.56 240.391 143.446C240.287 143.238 240.089 143.134 239.796 143.134ZM243.69 147.113C243.804 147.21 243.996 147.258 244.266 147.258C244.648 147.258 244.903 147.13 245.032 146.875C245.117 146.711 245.159 146.436 245.159 146.049V145.789C245.057 145.963 244.948 146.093 244.831 146.179C244.621 146.341 244.347 146.421 244.01 146.421C243.489 146.421 243.072 146.239 242.76 145.875C242.45 145.508 242.295 145.012 242.295 144.387C242.295 143.784 242.445 143.279 242.745 142.87C243.045 142.458 243.47 142.252 244.021 142.252C244.224 142.252 244.401 142.283 244.552 142.345C244.81 142.452 245.019 142.648 245.177 142.933V142.349H246.207V146.194C246.207 146.717 246.119 147.112 245.943 147.377C245.641 147.833 245.061 148.061 244.203 148.061C243.685 148.061 243.262 147.96 242.935 147.756C242.607 147.553 242.426 147.249 242.392 146.845H243.545C243.574 146.969 243.623 147.058 243.69 147.113ZM243.511 145.019C243.655 145.361 243.913 145.532 244.285 145.532C244.533 145.532 244.742 145.439 244.913 145.253C245.084 145.065 245.17 144.766 245.17 144.357C245.17 143.973 245.088 143.68 244.924 143.48C244.763 143.279 244.546 143.178 244.274 143.178C243.902 143.178 243.645 143.353 243.504 143.703C243.429 143.889 243.392 144.118 243.392 144.391C243.392 144.626 243.432 144.836 243.511 145.019ZM250.67 145.213C250.643 145.453 250.518 145.697 250.294 145.945C249.947 146.339 249.461 146.536 248.837 146.536C248.321 146.536 247.866 146.37 247.472 146.038C247.078 145.706 246.881 145.165 246.881 144.417C246.881 143.715 247.058 143.177 247.412 142.803C247.769 142.428 248.232 142.241 248.799 142.241C249.137 142.241 249.44 142.304 249.711 142.431C249.981 142.557 250.204 142.757 250.38 143.03C250.539 143.27 250.642 143.549 250.689 143.866C250.716 144.052 250.727 144.32 250.722 144.67H247.948C247.963 145.076 248.09 145.361 248.331 145.525C248.477 145.627 248.653 145.677 248.859 145.677C249.077 145.677 249.254 145.615 249.391 145.491C249.465 145.425 249.531 145.332 249.588 145.213H250.67ZM249.621 143.97C249.604 143.69 249.518 143.478 249.365 143.334C249.214 143.188 249.025 143.115 248.799 143.115C248.554 143.115 248.363 143.192 248.227 143.346C248.093 143.499 248.009 143.708 247.974 143.97H249.621ZM253.478 143.327C253.051 143.327 252.765 143.466 252.619 143.744C252.537 143.9 252.496 144.14 252.496 144.465V146.403H251.429V142.349H252.44V143.056C252.604 142.785 252.746 142.601 252.868 142.501C253.066 142.335 253.324 142.252 253.641 142.252C253.661 142.252 253.677 142.254 253.69 142.256C253.705 142.256 253.736 142.257 253.783 142.26V143.346C253.716 143.338 253.656 143.333 253.604 143.331C253.552 143.328 253.51 143.327 253.478 143.327ZM216.787 155.51C216.452 155.51 216.183 155.443 215.98 155.31C215.859 155.23 215.727 155.091 215.586 154.893V155.403H214.548V149.928H215.604V151.877C215.738 151.689 215.886 151.545 216.047 151.446C216.238 151.322 216.481 151.26 216.776 151.26C217.309 151.26 217.725 151.452 218.025 151.836C218.328 152.22 218.479 152.716 218.479 153.324C218.479 153.953 218.33 154.475 218.033 154.889C217.735 155.303 217.32 155.51 216.787 155.51ZM217.367 153.435C217.367 153.148 217.33 152.91 217.256 152.721C217.114 152.364 216.854 152.186 216.475 152.186C216.09 152.186 215.826 152.361 215.683 152.71C215.608 152.896 215.571 153.137 215.571 153.432C215.571 153.779 215.648 154.066 215.802 154.294C215.955 154.522 216.19 154.636 216.504 154.636C216.777 154.636 216.989 154.526 217.14 154.306C217.292 154.085 217.367 153.795 217.367 153.435ZM221.28 152.327C220.853 152.327 220.567 152.466 220.42 152.744C220.339 152.9 220.298 153.14 220.298 153.465V155.403H219.23V151.349H220.242V152.056C220.406 151.785 220.548 151.601 220.67 151.501C220.868 151.335 221.126 151.252 221.443 151.252C221.463 151.252 221.479 151.254 221.492 151.256C221.506 151.256 221.537 151.257 221.584 151.26V152.346C221.518 152.338 221.458 152.333 221.406 152.331C221.354 152.328 221.312 152.327 221.28 152.327ZM224.809 154.83C224.799 154.842 224.774 154.879 224.734 154.941C224.695 155.003 224.648 155.058 224.593 155.105C224.427 155.254 224.266 155.355 224.11 155.41C223.956 155.465 223.775 155.492 223.567 155.492C222.967 155.492 222.563 155.276 222.354 154.845C222.238 154.607 222.18 154.256 222.18 153.792V151.349H223.265V153.792C223.265 154.023 223.293 154.196 223.347 154.313C223.444 154.519 223.634 154.622 223.916 154.622C224.278 154.622 224.526 154.475 224.66 154.183C224.729 154.024 224.764 153.815 224.764 153.554V151.349H225.839V155.403H224.809V154.83ZM230.584 155.403H229.305L228.334 153.67L227.895 154.127V155.403H226.854V149.94H227.895V152.892L229.216 151.368H230.528L229.112 152.918L230.584 155.403ZM234.575 154.213C234.547 154.453 234.422 154.697 234.199 154.945C233.852 155.339 233.366 155.536 232.741 155.536C232.226 155.536 231.771 155.37 231.376 155.038C230.982 154.706 230.785 154.165 230.785 153.417C230.785 152.715 230.962 152.177 231.317 151.803C231.674 151.428 232.136 151.241 232.704 151.241C233.041 151.241 233.345 151.304 233.615 151.431C233.885 151.557 234.109 151.757 234.285 152.03C234.443 152.27 234.546 152.549 234.593 152.866C234.621 153.052 234.632 153.32 234.627 153.67H231.852C231.867 154.076 231.995 154.361 232.235 154.525C232.382 154.627 232.558 154.677 232.764 154.677C232.982 154.677 233.159 154.615 233.295 154.491C233.37 154.425 233.435 154.332 233.492 154.213H234.575ZM233.526 152.97C233.509 152.69 233.423 152.478 233.269 152.334C233.118 152.188 232.93 152.115 232.704 152.115C232.459 152.115 232.268 152.192 232.131 152.346C231.997 152.499 231.913 152.708 231.878 152.97H233.526ZM237.382 152.327C236.956 152.327 236.67 152.466 236.523 152.744C236.442 152.9 236.401 153.14 236.401 153.465V155.403H235.333V151.349H236.345V152.056C236.508 151.785 236.651 151.601 236.773 151.501C236.971 151.335 237.229 151.252 237.546 151.252C237.566 151.252 237.582 151.254 237.594 151.256C237.609 151.256 237.64 151.257 237.687 151.26V152.346C237.62 152.338 237.561 152.333 237.509 152.331C237.457 152.328 237.415 152.327 237.382 152.327ZM241.782 154.213C241.755 154.453 241.629 154.697 241.406 154.945C241.059 155.339 240.573 155.536 239.948 155.536C239.433 155.536 238.978 155.37 238.584 155.038C238.189 154.706 237.992 154.165 237.992 153.417C237.992 152.715 238.17 152.177 238.524 151.803C238.881 151.428 239.344 151.241 239.911 151.241C240.248 151.241 240.552 151.304 240.822 151.431C241.093 151.557 241.316 151.757 241.492 152.03C241.65 152.27 241.753 152.549 241.8 152.866C241.828 153.052 241.839 153.32 241.834 153.67H239.06C239.075 154.076 239.202 154.361 239.443 154.525C239.589 154.627 239.765 154.677 239.971 154.677C240.189 154.677 240.366 154.615 240.503 154.491C240.577 154.425 240.643 154.332 240.7 154.213H241.782ZM240.733 152.97C240.716 152.69 240.63 152.478 240.477 152.334C240.325 152.188 240.137 152.115 239.911 152.115C239.666 152.115 239.475 152.192 239.339 152.346C239.205 152.499 239.12 152.708 239.086 152.97H240.733ZM244.459 152.134C244.1 152.134 243.853 152.286 243.719 152.591C243.65 152.752 243.615 152.958 243.615 153.208V155.403H242.559V151.356H243.582V151.948C243.718 151.739 243.847 151.589 243.969 151.498C244.187 151.334 244.463 151.252 244.798 151.252C245.217 151.252 245.559 151.363 245.824 151.583C246.092 151.801 246.226 152.165 246.226 152.673V155.403H245.14V152.937C245.14 152.724 245.112 152.56 245.055 152.446C244.95 152.238 244.752 152.134 244.459 152.134ZM249.606 153.38C249.577 153.474 249.561 153.62 249.558 153.818H248.554C248.569 153.399 248.609 153.11 248.673 152.952C248.737 152.791 248.904 152.606 249.171 152.398L249.443 152.186C249.532 152.119 249.604 152.046 249.659 151.966C249.758 151.83 249.807 151.68 249.807 151.516C249.807 151.328 249.752 151.157 249.64 151.003C249.531 150.847 249.33 150.769 249.037 150.769C248.75 150.769 248.545 150.864 248.424 151.055C248.305 151.246 248.245 151.444 248.245 151.65H247.171C247.2 150.944 247.447 150.443 247.911 150.148C248.203 149.959 248.563 149.865 248.989 149.865C249.549 149.865 250.014 149.999 250.384 150.267C250.756 150.535 250.942 150.931 250.942 151.457C250.942 151.779 250.861 152.051 250.7 152.271C250.606 152.405 250.425 152.576 250.157 152.784L249.893 152.989C249.749 153.101 249.654 153.231 249.606 153.38ZM249.636 155.403H248.528V154.328H249.636V155.403Z" fill="#408EC6"/>
<circle cx="338.355" cy="147.685" r="36.6536" fill="#ECF4F9" stroke="#408EC6" stroke-width="0.380816"/>
<path d="M319.177 141.201V138.754H317.035V141.201H315.901V135.719H317.035V137.809H319.177V135.719H320.315V141.201H319.177ZM320.929 137.147H322.119L322.963 140.137L323.826 137.147H324.964L323.502 141.201H322.383L320.929 137.147ZM328.947 137.661C329.289 138.089 329.46 138.596 329.46 139.182C329.46 139.777 329.289 140.286 328.947 140.71C328.605 141.132 328.085 141.342 327.389 141.342C326.692 141.342 326.172 141.132 325.83 140.71C325.488 140.286 325.317 139.777 325.317 139.182C325.317 138.596 325.488 138.089 325.83 137.661C326.172 137.232 326.692 137.017 327.389 137.017C328.085 137.017 328.605 137.232 328.947 137.661ZM327.385 137.913C327.075 137.913 326.836 138.024 326.667 138.244C326.501 138.463 326.418 138.775 326.418 139.182C326.418 139.588 326.501 139.902 326.667 140.122C326.836 140.343 327.075 140.453 327.385 140.453C327.695 140.453 327.933 140.343 328.099 140.122C328.265 139.902 328.348 139.588 328.348 139.182C328.348 138.775 328.265 138.463 328.099 138.244C327.933 138.024 327.695 137.913 327.385 137.913ZM332.26 138.125C331.834 138.125 331.548 138.264 331.401 138.542C331.319 138.698 331.279 138.939 331.279 139.263V141.201H330.211V137.147H331.223V137.854C331.386 137.584 331.529 137.399 331.65 137.3C331.849 137.134 332.107 137.051 332.424 137.051C332.444 137.051 332.46 137.052 332.472 137.054C332.487 137.054 332.518 137.056 332.565 137.058V138.144C332.498 138.137 332.439 138.132 332.387 138.129C332.335 138.127 332.293 138.125 332.26 138.125ZM336.879 135.727V141.201H335.849V140.639C335.698 140.88 335.526 141.055 335.332 141.164C335.139 141.273 334.898 141.327 334.611 141.327C334.137 141.327 333.738 141.136 333.413 140.755C333.091 140.37 332.93 139.878 332.93 139.278C332.93 138.587 333.088 138.042 333.406 137.646C333.726 137.249 334.152 137.051 334.685 137.051C334.93 137.051 335.149 137.105 335.34 137.214C335.53 137.321 335.685 137.47 335.804 137.661V135.727H336.879ZM334.023 139.2C334.023 139.575 334.097 139.873 334.246 140.096C334.392 140.322 334.616 140.435 334.916 140.435C335.216 140.435 335.444 140.323 335.6 140.1C335.756 139.877 335.834 139.588 335.834 139.234C335.834 138.738 335.709 138.383 335.459 138.17C335.305 138.041 335.126 137.977 334.923 137.977C334.613 137.977 334.385 138.094 334.239 138.33C334.095 138.563 334.023 138.853 334.023 139.2ZM337.999 137.586C338.279 137.229 338.76 137.051 339.442 137.051C339.885 137.051 340.28 137.139 340.624 137.315C340.969 137.491 341.141 137.823 341.141 138.311V140.171C341.141 140.3 341.144 140.456 341.149 140.639C341.156 140.778 341.177 140.872 341.212 140.922C341.246 140.972 341.299 141.013 341.368 141.045V141.201H340.215C340.183 141.119 340.161 141.042 340.148 140.97C340.136 140.898 340.126 140.817 340.118 140.725C339.972 140.884 339.804 141.019 339.613 141.13C339.385 141.262 339.127 141.327 338.839 141.327C338.472 141.327 338.168 141.223 337.928 141.015C337.69 140.804 337.571 140.507 337.571 140.122C337.571 139.624 337.763 139.263 338.147 139.04C338.358 138.919 338.668 138.832 339.077 138.78L339.438 138.735C339.634 138.71 339.774 138.68 339.858 138.642C340.009 138.578 340.085 138.477 340.085 138.341C340.085 138.175 340.027 138.061 339.91 137.999C339.796 137.934 339.627 137.902 339.404 137.902C339.154 137.902 338.977 137.964 338.873 138.088C338.798 138.18 338.749 138.304 338.724 138.46H337.701C337.723 138.106 337.823 137.814 337.999 137.586ZM338.787 140.435C338.886 140.517 339.008 140.558 339.151 140.558C339.38 140.558 339.589 140.491 339.78 140.357C339.973 140.223 340.074 139.979 340.081 139.624V139.23C340.014 139.272 339.946 139.307 339.877 139.334C339.81 139.359 339.717 139.382 339.598 139.405L339.36 139.449C339.137 139.489 338.977 139.537 338.88 139.594C338.716 139.691 338.635 139.841 338.635 140.044C338.635 140.225 338.685 140.355 338.787 140.435ZM343.993 137.932C343.634 137.932 343.387 138.084 343.253 138.389C343.184 138.551 343.149 138.756 343.149 139.007V141.201H342.093V137.155H343.116V137.746C343.252 137.538 343.381 137.388 343.503 137.296C343.721 137.132 343.997 137.051 344.332 137.051C344.751 137.051 345.093 137.161 345.358 137.382C345.626 137.6 345.76 137.963 345.76 138.471V141.201H344.674V138.735C344.674 138.522 344.646 138.358 344.589 138.244C344.484 138.036 344.286 137.932 343.993 137.932ZM352.58 141.201H351.301L350.331 139.468L349.892 139.925V141.201H348.85V135.738H349.892V138.691L351.212 137.166H352.525L351.108 138.717L352.58 141.201ZM353.254 137.586C353.534 137.229 354.015 137.051 354.697 137.051C355.14 137.051 355.534 137.139 355.879 137.315C356.224 137.491 356.396 137.823 356.396 138.311V140.171C356.396 140.3 356.399 140.456 356.403 140.639C356.411 140.778 356.432 140.872 356.467 140.922C356.501 140.972 356.553 141.013 356.623 141.045V141.201H355.47C355.438 141.119 355.415 141.042 355.403 140.97C355.391 140.898 355.381 140.817 355.373 140.725C355.227 140.884 355.058 141.019 354.868 141.13C354.639 141.262 354.382 141.327 354.094 141.327C353.727 141.327 353.423 141.223 353.183 141.015C352.945 140.804 352.826 140.507 352.826 140.122C352.826 139.624 353.018 139.263 353.402 139.04C353.613 138.919 353.923 138.832 354.332 138.78L354.693 138.735C354.889 138.71 355.029 138.68 355.113 138.642C355.264 138.578 355.34 138.477 355.34 138.341C355.34 138.175 355.282 138.061 355.165 137.999C355.051 137.934 354.882 137.902 354.659 137.902C354.409 137.902 354.232 137.964 354.128 138.088C354.053 138.18 354.004 138.304 353.979 138.46H352.956C352.978 138.106 353.078 137.814 353.254 137.586ZM354.042 140.435C354.141 140.517 354.263 140.558 354.406 140.558C354.635 140.558 354.844 140.491 355.035 140.357C355.228 140.223 355.329 139.979 355.336 139.624V139.23C355.269 139.272 355.201 139.307 355.132 139.334C355.065 139.359 354.972 139.382 354.853 139.405L354.615 139.449C354.392 139.489 354.232 139.537 354.135 139.594C353.971 139.691 353.889 139.841 353.889 140.044C353.889 140.225 353.94 140.355 354.042 140.435ZM359.248 137.932C358.889 137.932 358.642 138.084 358.508 138.389C358.439 138.551 358.404 138.756 358.404 139.007V141.201H357.348V137.155H358.371V137.746C358.507 137.538 358.636 137.388 358.758 137.296C358.976 137.132 359.252 137.051 359.587 137.051C360.006 137.051 360.348 137.161 360.613 137.382C360.881 137.6 361.015 137.963 361.015 138.471V141.201H359.929V138.735C359.929 138.522 359.9 138.358 359.843 138.244C359.739 138.036 359.541 137.932 359.248 137.932ZM324.808 144.727V150.201H323.777V149.639C323.626 149.88 323.454 150.055 323.261 150.164C323.067 150.273 322.827 150.327 322.539 150.327C322.066 150.327 321.666 150.136 321.342 149.755C321.019 149.37 320.858 148.878 320.858 148.278C320.858 147.587 321.017 147.042 321.334 146.646C321.654 146.249 322.08 146.051 322.613 146.051C322.859 146.051 323.077 146.105 323.268 146.214C323.459 146.321 323.614 146.47 323.733 146.661V144.727H324.808ZM321.952 148.2C321.952 148.575 322.026 148.873 322.175 149.096C322.321 149.322 322.544 149.435 322.844 149.435C323.144 149.435 323.372 149.323 323.528 149.1C323.685 148.877 323.763 148.588 323.763 148.234C323.763 147.738 323.637 147.383 323.387 147.17C323.233 147.041 323.055 146.977 322.851 146.977C322.542 146.977 322.313 147.094 322.167 147.33C322.023 147.563 321.952 147.853 321.952 148.2ZM329.244 149.011C329.217 149.251 329.092 149.496 328.869 149.744C328.522 150.138 328.036 150.335 327.411 150.335C326.895 150.335 326.44 150.169 326.046 149.836C325.652 149.504 325.455 148.964 325.455 148.215C325.455 147.513 325.632 146.975 325.987 146.601C326.344 146.227 326.806 146.039 327.374 146.039C327.711 146.039 328.015 146.103 328.285 146.229C328.555 146.356 328.778 146.555 328.954 146.828C329.113 147.068 329.216 147.347 329.263 147.665C329.29 147.851 329.301 148.118 329.296 148.468H326.522C326.537 148.875 326.665 149.16 326.905 149.323C327.051 149.425 327.227 149.476 327.433 149.476C327.651 149.476 327.829 149.414 327.965 149.29C328.039 149.223 328.105 149.13 328.162 149.011H329.244ZM328.196 147.769C328.178 147.489 328.093 147.277 327.939 147.133C327.788 146.987 327.599 146.913 327.374 146.913C327.128 146.913 326.937 146.99 326.801 147.144C326.667 147.298 326.583 147.506 326.548 147.769H328.196ZM331.87 149.446V150.238L331.368 150.257C330.867 150.274 330.525 150.187 330.341 149.996C330.222 149.875 330.163 149.688 330.163 149.435V146.939H329.598V146.185H330.163V145.054H331.212V146.185H331.87V146.939H331.212V149.082C331.212 149.248 331.233 149.352 331.275 149.394C331.317 149.434 331.446 149.453 331.662 149.453C331.694 149.453 331.727 149.453 331.762 149.453C331.799 149.451 331.835 149.448 331.87 149.446ZM337.463 146.333C337.78 146.537 337.963 146.886 338.01 147.382H336.95C336.935 147.246 336.897 147.138 336.835 147.058C336.718 146.915 336.52 146.843 336.24 146.843C336.009 146.843 335.844 146.879 335.745 146.951C335.648 147.022 335.6 147.107 335.6 147.203C335.6 147.325 335.652 147.413 335.756 147.468C335.86 147.525 336.228 147.622 336.861 147.761C337.282 147.86 337.598 148.01 337.809 148.211C338.017 148.415 338.121 148.669 338.121 148.974C338.121 149.375 337.971 149.704 337.671 149.959C337.374 150.212 336.913 150.339 336.288 150.339C335.651 150.339 335.18 150.205 334.875 149.937C334.572 149.667 334.421 149.323 334.421 148.907H335.496C335.518 149.095 335.566 149.229 335.641 149.308C335.772 149.45 336.015 149.52 336.37 149.52C336.578 149.52 336.743 149.489 336.864 149.427C336.988 149.365 337.05 149.272 337.05 149.148C337.05 149.029 337.001 148.939 336.902 148.877C336.802 148.815 336.434 148.708 335.797 148.557C335.338 148.443 335.015 148.301 334.826 148.129C334.638 147.961 334.544 147.718 334.544 147.401C334.544 147.026 334.69 146.705 334.983 146.437C335.278 146.167 335.692 146.032 336.225 146.032C336.73 146.032 337.143 146.132 337.463 146.333ZM342.379 149.011C342.352 149.251 342.227 149.496 342.004 149.744C341.657 150.138 341.171 150.335 340.546 150.335C340.03 150.335 339.575 150.169 339.181 149.836C338.787 149.504 338.59 148.964 338.59 148.215C338.59 147.513 338.767 146.975 339.122 146.601C339.479 146.227 339.941 146.039 340.509 146.039C340.846 146.039 341.15 146.103 341.42 146.229C341.69 146.356 341.913 146.555 342.089 146.828C342.248 147.068 342.351 147.347 342.398 147.665C342.425 147.851 342.436 148.118 342.432 148.468H339.657C339.672 148.875 339.8 149.16 340.04 149.323C340.187 149.425 340.363 149.476 340.568 149.476C340.787 149.476 340.964 149.414 341.1 149.29C341.175 149.223 341.24 149.13 341.297 149.011H342.379ZM341.331 147.769C341.313 147.489 341.228 147.277 341.074 147.133C340.923 146.987 340.734 146.913 340.509 146.913C340.263 146.913 340.073 146.99 339.936 147.144C339.802 147.298 339.718 147.506 339.683 147.769H341.331ZM347.869 149.628C347.859 149.641 347.834 149.678 347.794 149.74C347.755 149.802 347.707 149.856 347.653 149.903C347.487 150.052 347.326 150.154 347.169 150.208C347.016 150.263 346.835 150.29 346.626 150.29C346.026 150.29 345.622 150.074 345.414 149.643C345.298 149.405 345.239 149.054 345.239 148.591V146.147H346.325V148.591C346.325 148.821 346.353 148.995 346.407 149.111C346.504 149.317 346.693 149.42 346.976 149.42C347.338 149.42 347.586 149.274 347.72 148.981C347.789 148.822 347.824 148.613 347.824 148.353V146.147H348.899V150.201H347.869V149.628ZM351.781 149.446V150.238L351.279 150.257C350.778 150.274 350.436 150.187 350.252 149.996C350.133 149.875 350.074 149.688 350.074 149.435V146.939H349.509V146.185H350.074V145.054H351.123V146.185H351.781V146.939H351.123V149.082C351.123 149.248 351.144 149.352 351.186 149.394C351.228 149.434 351.357 149.453 351.573 149.453C351.605 149.453 351.638 149.453 351.673 149.453C351.71 149.451 351.746 149.448 351.781 149.446ZM355.671 146.147V150.201H354.596V146.147H355.671ZM355.671 144.686V145.664H354.596V144.686H355.671ZM320.077 155.582C320.404 155.932 320.568 156.445 320.568 157.122C320.568 157.836 320.407 158.38 320.085 158.755C319.765 159.129 319.352 159.316 318.846 159.316C318.524 159.316 318.256 159.236 318.043 159.074C317.926 158.985 317.812 158.855 317.701 158.684V160.796H316.652V155.147H317.667V155.746C317.781 155.57 317.903 155.431 318.032 155.33C318.267 155.149 318.547 155.058 318.872 155.058C319.346 155.058 319.747 155.233 320.077 155.582ZM319.475 157.174C319.475 156.862 319.403 156.585 319.259 156.345C319.118 156.104 318.887 155.984 318.567 155.984C318.183 155.984 317.919 156.166 317.775 156.531C317.701 156.724 317.664 156.97 317.664 157.267C317.664 157.738 317.789 158.069 318.039 158.26C318.188 158.372 318.364 158.427 318.567 158.427C318.862 158.427 319.087 158.313 319.24 158.085C319.397 157.857 319.475 157.553 319.475 157.174ZM323.376 156.125C322.949 156.125 322.663 156.264 322.517 156.542C322.435 156.698 322.394 156.939 322.394 157.263V159.201H321.327V155.147H322.338V155.854C322.502 155.584 322.644 155.399 322.766 155.3C322.964 155.134 323.222 155.051 323.539 155.051C323.559 155.051 323.575 155.052 323.588 155.054C323.603 155.054 323.634 155.056 323.681 155.058V156.144C323.614 156.137 323.554 156.132 323.502 156.129C323.45 156.127 323.408 156.125 323.376 156.125ZM327.686 155.661C328.028 156.089 328.199 156.596 328.199 157.182C328.199 157.777 328.028 158.286 327.686 158.71C327.344 159.132 326.825 159.342 326.128 159.342C325.431 159.342 324.912 159.132 324.57 158.71C324.227 158.286 324.056 157.777 324.056 157.182C324.056 156.596 324.227 156.089 324.57 155.661C324.912 155.232 325.431 155.017 326.128 155.017C326.825 155.017 327.344 155.232 327.686 155.661ZM326.124 155.913C325.814 155.913 325.575 156.024 325.406 156.244C325.24 156.463 325.157 156.775 325.157 157.182C325.157 157.588 325.24 157.902 325.406 158.122C325.575 158.343 325.814 158.453 326.124 158.453C326.434 158.453 326.672 158.343 326.838 158.122C327.004 157.902 327.087 157.588 327.087 157.182C327.087 156.775 327.004 156.463 326.838 156.244C326.672 156.024 326.434 155.913 326.124 155.913ZM330.817 158.446V159.238L330.315 159.257C329.815 159.274 329.472 159.187 329.289 158.996C329.17 158.875 329.11 158.688 329.11 158.435V155.939H328.545V155.185H329.11V154.054H330.159V155.185H330.817V155.939H330.159V158.082C330.159 158.248 330.18 158.352 330.222 158.394C330.265 158.434 330.393 158.453 330.609 158.453C330.641 158.453 330.675 158.453 330.71 158.453C330.747 158.451 330.783 158.448 330.817 158.446ZM334.878 155.661C335.221 156.089 335.392 156.596 335.392 157.182C335.392 157.777 335.221 158.286 334.878 158.71C334.536 159.132 334.017 159.342 333.32 159.342C332.624 159.342 332.104 159.132 331.762 158.71C331.42 158.286 331.249 157.777 331.249 157.182C331.249 156.596 331.42 156.089 331.762 155.661C332.104 155.232 332.624 155.017 333.32 155.017C334.017 155.017 334.536 155.232 334.878 155.661ZM333.316 155.913C333.007 155.913 332.767 156.024 332.599 156.244C332.433 156.463 332.35 156.775 332.35 157.182C332.35 157.588 332.433 157.902 332.599 158.122C332.767 158.343 333.007 158.453 333.316 158.453C333.626 158.453 333.864 158.343 334.031 158.122C334.197 157.902 334.28 157.588 334.28 157.182C334.28 156.775 334.197 156.463 334.031 156.244C333.864 156.024 333.626 155.913 333.316 155.913ZM338.01 158.446V159.238L337.508 159.257C337.007 159.274 336.665 159.187 336.481 158.996C336.362 158.875 336.303 158.688 336.303 158.435V155.939H335.737V155.185H336.303V154.054H337.352V155.185H338.01V155.939H337.352V158.082C337.352 158.248 337.373 158.352 337.415 158.394C337.457 158.434 337.586 158.453 337.801 158.453C337.834 158.453 337.867 158.453 337.902 158.453C337.939 158.451 337.975 158.448 338.01 158.446ZM340.338 158.137L341.175 155.147H342.301L340.911 159.134C340.643 159.903 340.431 160.379 340.275 160.562C340.118 160.748 339.806 160.841 339.337 160.841C339.243 160.841 339.168 160.84 339.111 160.837C339.054 160.837 338.968 160.834 338.854 160.826V159.978L338.988 159.986C339.092 159.991 339.191 159.987 339.285 159.974C339.38 159.962 339.459 159.934 339.523 159.889C339.585 159.847 339.642 159.759 339.694 159.625C339.749 159.491 339.771 159.409 339.761 159.379L338.274 155.147H339.453L340.338 158.137ZM346.325 155.582C346.653 155.932 346.816 156.445 346.816 157.122C346.816 157.836 346.655 158.38 346.333 158.755C346.013 159.129 345.6 159.316 345.094 159.316C344.772 159.316 344.504 159.236 344.291 159.074C344.174 158.985 344.06 158.855 343.949 158.684V160.796H342.9V155.147H343.915V155.746C344.029 155.57 344.151 155.431 344.28 155.33C344.515 155.149 344.796 155.058 345.12 155.058C345.594 155.058 345.995 155.233 346.325 155.582ZM345.723 157.174C345.723 156.862 345.651 156.585 345.507 156.345C345.366 156.104 345.135 155.984 344.815 155.984C344.431 155.984 344.167 156.166 344.023 156.531C343.949 156.724 343.912 156.97 343.912 157.267C343.912 157.738 344.037 158.069 344.287 158.26C344.436 158.372 344.612 158.427 344.815 158.427C345.11 158.427 345.335 158.313 345.488 158.085C345.645 157.857 345.723 157.553 345.723 157.174ZM351.056 158.011C351.028 158.251 350.903 158.496 350.68 158.744C350.333 159.138 349.847 159.335 349.222 159.335C348.707 159.335 348.252 159.169 347.857 158.836C347.463 158.504 347.266 157.964 347.266 157.215C347.266 156.513 347.443 155.975 347.798 155.601C348.155 155.227 348.617 155.039 349.185 155.039C349.522 155.039 349.826 155.103 350.096 155.229C350.366 155.356 350.59 155.555 350.766 155.828C350.924 156.068 351.027 156.347 351.074 156.665C351.102 156.851 351.113 157.118 351.108 157.468H348.333C348.348 157.875 348.476 158.16 348.716 158.323C348.863 158.425 349.039 158.476 349.245 158.476C349.463 158.476 349.64 158.414 349.776 158.29C349.851 158.223 349.916 158.13 349.973 158.011H351.056ZM350.007 156.769C349.99 156.489 349.904 156.277 349.75 156.133C349.599 155.987 349.411 155.913 349.185 155.913C348.94 155.913 348.749 155.99 348.612 156.144C348.478 156.298 348.394 156.506 348.359 156.769H350.007ZM353.733 155.932C353.374 155.932 353.127 156.084 352.993 156.389C352.924 156.551 352.889 156.756 352.889 157.007V159.201H351.833V155.155H352.856V155.746C352.992 155.538 353.121 155.388 353.242 155.296C353.461 155.132 353.737 155.051 354.072 155.051C354.491 155.051 354.833 155.161 355.098 155.382C355.366 155.6 355.5 155.963 355.5 156.471V159.201H354.414V156.735C354.414 156.522 354.385 156.358 354.328 156.244C354.224 156.036 354.026 155.932 353.733 155.932ZM358.88 157.178C358.851 157.272 358.834 157.418 358.832 157.617H357.828C357.843 157.198 357.882 156.909 357.947 156.75C358.011 156.589 358.177 156.404 358.445 156.196L358.717 155.984C358.806 155.917 358.878 155.844 358.932 155.765C359.032 155.628 359.081 155.478 359.081 155.315C359.081 155.126 359.025 154.955 358.914 154.801C358.805 154.645 358.604 154.567 358.311 154.567C358.024 154.567 357.819 154.663 357.698 154.854C357.579 155.044 357.519 155.243 357.519 155.449H356.444C356.474 154.742 356.721 154.241 357.184 153.946C357.477 153.758 357.836 153.663 358.263 153.663C358.823 153.663 359.288 153.797 359.658 154.065C360.029 154.333 360.215 154.73 360.215 155.255C360.215 155.577 360.135 155.849 359.974 156.07C359.879 156.203 359.698 156.375 359.431 156.583L359.167 156.787C359.023 156.899 358.927 157.029 358.88 157.178ZM358.91 159.201H357.802V158.126H358.91V159.201Z" fill="#408EC6"/>
<path d="M289.418 213.523C289.479 213.256 289.588 213.045 289.745 212.888C289.902 212.724 290.084 212.612 290.289 212.552L290.217 212.888C290.132 212.936 290.047 213.002 289.963 213.087C289.884 213.172 289.824 213.305 289.781 213.486L289.718 213.795H290.026L289.854 214.593H289.192L289.418 213.523ZM288.049 213.523C288.109 213.256 288.218 213.045 288.375 212.888C288.532 212.724 288.714 212.612 288.919 212.552L288.847 212.888C288.762 212.936 288.678 213.002 288.593 213.087C288.514 213.172 288.454 213.305 288.411 213.486L288.348 213.795H288.656L288.484 214.593H287.822L288.049 213.523ZM292.173 213.386H292.155L290.949 219.083H290.332L291.72 212.552H292.418L294.976 218.258H294.995L296.21 212.552H296.827L295.439 219.083H294.722L292.173 213.386ZM300.416 216.616C300.162 216.713 299.915 216.776 299.673 216.807C299.437 216.837 299.198 216.861 298.956 216.879C298.533 216.909 298.185 217.003 297.913 217.16C297.647 217.318 297.48 217.556 297.414 217.877C297.384 218.022 297.387 218.149 297.423 218.258C297.459 218.361 297.517 218.448 297.595 218.521C297.68 218.588 297.78 218.639 297.895 218.675C298.009 218.706 298.13 218.721 298.257 218.721C298.475 218.721 298.69 218.693 298.902 218.639C299.119 218.585 299.319 218.503 299.5 218.394C299.688 218.279 299.848 218.137 299.981 217.968C300.114 217.792 300.208 217.587 300.262 217.351L300.416 216.616ZM299.555 216.344C299.657 216.332 299.781 216.314 299.927 216.289C300.078 216.265 300.205 216.232 300.308 216.19C300.41 216.147 300.48 216.078 300.516 215.981C300.559 215.878 300.589 215.784 300.607 215.7C300.637 215.561 300.643 215.434 300.625 215.319C300.607 215.204 300.559 215.104 300.48 215.019C300.407 214.935 300.302 214.868 300.162 214.82C300.029 214.771 299.857 214.747 299.645 214.747C299.27 214.747 298.944 214.823 298.666 214.974C298.387 215.125 298.182 215.403 298.049 215.809H297.495C297.574 215.53 297.686 215.295 297.831 215.101C297.982 214.901 298.158 214.741 298.357 214.62C298.557 214.493 298.775 214.403 299.01 214.348C299.252 214.288 299.5 214.257 299.754 214.257C299.99 214.257 300.205 214.285 300.398 214.339C300.598 214.387 300.761 214.469 300.888 214.584C301.021 214.693 301.112 214.841 301.16 215.028C301.209 215.216 301.206 215.446 301.151 215.718L300.607 218.276C300.559 218.488 300.565 218.624 300.625 218.684C300.692 218.739 300.849 218.724 301.097 218.639L301.006 219.065C300.964 219.077 300.897 219.096 300.807 219.12C300.722 219.144 300.64 219.156 300.562 219.156C300.483 219.156 300.404 219.147 300.326 219.129C300.15 219.099 300.051 219.017 300.026 218.884C300.002 218.745 300.005 218.594 300.035 218.43C299.751 218.684 299.446 218.878 299.119 219.011C298.799 219.144 298.466 219.21 298.121 219.21C297.916 219.21 297.722 219.183 297.541 219.129C297.365 219.074 297.217 218.99 297.096 218.875C296.975 218.76 296.891 218.621 296.842 218.458C296.794 218.288 296.794 218.089 296.842 217.859C297.006 217.061 297.653 216.589 298.784 216.444L299.555 216.344ZM299.809 213.84C299.561 213.84 299.364 213.752 299.219 213.577C299.08 213.402 299.038 213.19 299.092 212.942C299.116 212.821 299.165 212.706 299.237 212.597C299.31 212.488 299.394 212.392 299.491 212.307C299.594 212.222 299.706 212.156 299.827 212.107C299.948 212.059 300.069 212.035 300.19 212.035C300.311 212.035 300.42 212.059 300.516 212.107C300.619 212.156 300.701 212.222 300.761 212.307C300.828 212.392 300.873 212.488 300.897 212.597C300.921 212.706 300.921 212.821 300.897 212.942C300.867 213.063 300.816 213.178 300.743 213.287C300.677 213.396 300.592 213.492 300.489 213.577C300.392 213.656 300.283 213.719 300.162 213.767C300.048 213.816 299.93 213.84 299.809 213.84ZM299.872 213.541C300.029 213.541 300.181 213.48 300.326 213.359C300.471 213.238 300.562 213.099 300.598 212.942C300.628 212.785 300.598 212.646 300.507 212.525C300.416 212.398 300.289 212.334 300.126 212.334C299.963 212.334 299.809 212.395 299.664 212.516C299.518 212.637 299.428 212.779 299.391 212.942C299.355 213.105 299.385 213.247 299.482 213.368C299.585 213.483 299.715 213.541 299.872 213.541ZM302.427 219.083H301.883L302.881 214.384H303.425L303.235 215.264H303.253C303.483 214.889 303.734 214.629 304.006 214.484C304.278 214.333 304.611 214.257 305.004 214.257L304.877 214.847C304.574 214.841 304.311 214.889 304.087 214.992C303.87 215.095 303.682 215.234 303.525 215.409C303.374 215.585 303.247 215.794 303.144 216.035C303.047 216.271 302.972 216.519 302.917 216.779L302.427 219.083ZM309.089 214.384L307.955 219.709C307.913 219.909 307.867 220.084 307.819 220.236C307.771 220.387 307.704 220.514 307.619 220.617C307.535 220.725 307.423 220.804 307.284 220.852C307.151 220.907 306.975 220.934 306.758 220.934C306.624 220.934 306.507 220.922 306.404 220.898L306.513 220.417C306.815 220.459 307.024 220.426 307.139 220.317C307.259 220.208 307.347 220.03 307.402 219.782L308.545 214.384H309.089ZM309.334 213.359H308.735L308.907 212.552H309.506L309.334 213.359ZM313.386 216.407C313.434 216.178 313.446 215.963 313.422 215.763C313.404 215.558 313.35 215.382 313.259 215.237C313.168 215.086 313.038 214.968 312.869 214.883C312.7 214.793 312.494 214.747 312.252 214.747C312.01 214.747 311.786 214.793 311.581 214.883C311.381 214.974 311.2 215.095 311.036 215.246C310.873 215.397 310.731 215.573 310.61 215.772C310.489 215.972 310.392 216.184 310.32 216.407H313.386ZM310.22 216.861C310.166 217.115 310.147 217.357 310.166 217.587C310.184 217.81 310.241 218.007 310.338 218.176C310.435 218.34 310.571 218.473 310.746 218.575C310.928 218.672 311.148 218.721 311.408 218.721C311.765 218.721 312.089 218.627 312.379 218.439C312.675 218.252 312.902 217.986 313.059 217.641H313.667C313.552 217.865 313.419 218.074 313.268 218.267C313.123 218.455 312.954 218.621 312.76 218.766C312.567 218.905 312.349 219.014 312.107 219.093C311.865 219.171 311.596 219.21 311.3 219.21C310.925 219.21 310.613 219.147 310.365 219.02C310.123 218.893 309.936 218.721 309.803 218.503C309.676 218.279 309.603 218.019 309.585 217.723C309.567 217.42 309.594 217.097 309.667 216.752C309.739 216.407 309.857 216.084 310.02 215.781C310.184 215.479 310.38 215.216 310.61 214.992C310.846 214.762 311.109 214.584 311.399 214.457C311.696 214.324 312.013 214.257 312.352 214.257C312.999 214.257 313.459 214.481 313.731 214.929C314.009 215.37 314.054 216.014 313.867 216.861H310.22ZM318.581 216.752C318.642 216.468 318.663 216.205 318.645 215.963C318.626 215.715 318.569 215.503 318.472 215.328C318.375 215.146 318.239 215.004 318.064 214.901C317.889 214.799 317.674 214.747 317.42 214.747C317.19 214.747 316.969 214.79 316.758 214.874C316.546 214.953 316.349 215.071 316.168 215.228C315.993 215.385 315.838 215.579 315.705 215.809C315.578 216.032 315.482 216.292 315.415 216.589C315.342 216.885 315.309 217.163 315.315 217.423C315.321 217.677 315.37 217.901 315.46 218.095C315.557 218.288 315.696 218.442 315.878 218.557C316.059 218.666 316.292 218.721 316.576 218.721C316.824 218.721 317.057 218.669 317.275 218.566C317.492 218.458 317.689 218.315 317.864 218.14C318.04 217.959 318.188 217.75 318.309 217.514C318.436 217.272 318.527 217.018 318.581 216.752ZM319.08 214.384H319.624L318.726 218.63C318.66 218.944 318.563 219.244 318.436 219.528C318.315 219.818 318.149 220.072 317.937 220.29C317.725 220.508 317.462 220.68 317.148 220.807C316.839 220.94 316.461 221.007 316.014 221.007C315.669 221.007 315.382 220.961 315.152 220.871C314.922 220.786 314.741 220.677 314.608 220.544C314.481 220.411 314.393 220.263 314.345 220.1C314.302 219.942 314.293 219.794 314.317 219.655H314.898C314.898 219.83 314.931 219.973 314.998 220.081C315.064 220.196 315.152 220.284 315.261 220.344C315.376 220.411 315.506 220.456 315.651 220.481C315.796 220.505 315.95 220.517 316.114 220.517C316.482 220.517 316.791 220.453 317.039 220.326C317.293 220.199 317.498 220.033 317.656 219.827C317.819 219.622 317.943 219.389 318.028 219.129C318.118 218.869 318.191 218.603 318.245 218.331C318.01 218.621 317.722 218.842 317.384 218.993C317.045 219.138 316.709 219.21 316.377 219.21C316.02 219.21 315.723 219.144 315.488 219.011C315.252 218.872 315.07 218.69 314.943 218.467C314.822 218.237 314.75 217.971 314.726 217.668C314.707 217.366 314.735 217.051 314.807 216.725C314.88 216.38 314.989 216.057 315.134 215.754C315.279 215.452 315.46 215.192 315.678 214.974C315.896 214.75 316.15 214.575 316.44 214.448C316.736 214.321 317.075 214.257 317.456 214.257C317.607 214.257 317.756 214.279 317.901 214.321C318.052 214.363 318.191 214.424 318.318 214.502C318.451 214.581 318.566 214.681 318.663 214.802C318.765 214.923 318.841 215.059 318.889 215.21H318.908L319.08 214.384ZM326.262 219.764L326.162 220.217H321.626L321.726 219.764H326.262ZM330.797 219.764L330.698 220.217H326.162L326.262 219.764H330.797ZM335.333 219.764L335.233 220.217H330.698L330.797 219.764H335.333ZM339.869 219.764L339.769 220.217H335.233L335.333 219.764H339.869ZM344.405 219.764L344.305 220.217H339.769L339.869 219.764H344.405ZM348.227 214.384H348.817L349.488 218.412L351.865 214.384H352.454L349.633 219.083H349.025L348.227 214.384ZM352.186 219.083L353.184 214.384H353.728L352.73 219.083H352.186ZM353.374 213.359L353.547 212.552H354.146L353.973 213.359H353.374ZM354.197 219.083L355.585 212.552H356.129L354.741 219.083H354.197ZM360.339 214.384L359.205 219.709C359.162 219.909 359.117 220.084 359.069 220.236C359.02 220.387 358.954 220.514 358.869 220.617C358.784 220.725 358.672 220.804 358.533 220.852C358.4 220.907 358.225 220.934 358.007 220.934C357.874 220.934 357.756 220.922 357.653 220.898L357.762 220.417C358.065 220.459 358.273 220.426 358.388 220.317C358.509 220.208 358.597 220.03 358.651 219.782L359.794 214.384H360.339ZM360.584 213.359H359.985L360.157 212.552H360.756L360.584 213.359ZM364.636 216.407C364.684 216.178 364.696 215.963 364.672 215.763C364.654 215.558 364.599 215.382 364.509 215.237C364.418 215.086 364.288 214.968 364.119 214.883C363.949 214.793 363.744 214.747 363.502 214.747C363.26 214.747 363.036 214.793 362.83 214.883C362.631 214.974 362.449 215.095 362.286 215.246C362.123 215.397 361.981 215.573 361.86 215.772C361.739 215.972 361.642 216.184 361.569 216.407H364.636ZM361.47 216.861C361.415 217.115 361.397 217.357 361.415 217.587C361.433 217.81 361.491 218.007 361.588 218.176C361.684 218.34 361.82 218.473 361.996 218.575C362.177 218.672 362.398 218.721 362.658 218.721C363.015 218.721 363.338 218.627 363.629 218.439C363.925 218.252 364.152 217.986 364.309 217.641H364.917C364.802 217.865 364.669 218.074 364.518 218.267C364.373 218.455 364.203 218.621 364.01 218.766C363.816 218.905 363.598 219.014 363.357 219.093C363.115 219.171 362.846 219.21 362.549 219.21C362.174 219.21 361.863 219.147 361.615 219.02C361.373 218.893 361.185 218.721 361.052 218.503C360.925 218.279 360.853 218.019 360.835 217.723C360.816 217.42 360.844 217.097 360.916 216.752C360.989 216.407 361.107 216.084 361.27 215.781C361.433 215.479 361.63 215.216 361.86 214.992C362.096 214.762 362.359 214.584 362.649 214.457C362.945 214.324 363.263 214.257 363.601 214.257C364.249 214.257 364.708 214.481 364.98 214.929C365.259 215.37 365.304 216.014 365.116 216.861H361.47ZM369.831 216.752C369.891 216.468 369.912 216.205 369.894 215.963C369.876 215.715 369.819 215.503 369.722 215.328C369.625 215.146 369.489 215.004 369.314 214.901C369.138 214.799 368.924 214.747 368.67 214.747C368.44 214.747 368.219 214.79 368.007 214.874C367.796 214.953 367.599 215.071 367.418 215.228C367.242 215.385 367.088 215.579 366.955 215.809C366.828 216.032 366.731 216.292 366.665 216.589C366.592 216.885 366.559 217.163 366.565 217.423C366.571 217.677 366.619 217.901 366.71 218.095C366.807 218.288 366.946 218.442 367.127 218.557C367.309 218.666 367.542 218.721 367.826 218.721C368.074 218.721 368.307 218.669 368.524 218.566C368.742 218.458 368.939 218.315 369.114 218.14C369.289 217.959 369.438 217.75 369.559 217.514C369.686 217.272 369.776 217.018 369.831 216.752ZM370.33 214.384H370.874L369.976 218.63C369.909 218.944 369.813 219.244 369.686 219.528C369.565 219.818 369.398 220.072 369.187 220.29C368.975 220.508 368.712 220.68 368.397 220.807C368.089 220.94 367.711 221.007 367.263 221.007C366.919 221.007 366.631 220.961 366.402 220.871C366.172 220.786 365.99 220.677 365.857 220.544C365.73 220.411 365.643 220.263 365.594 220.1C365.552 219.942 365.543 219.794 365.567 219.655H366.148C366.148 219.83 366.181 219.973 366.247 220.081C366.314 220.196 366.402 220.284 366.51 220.344C366.625 220.411 366.755 220.456 366.901 220.481C367.046 220.505 367.2 220.517 367.363 220.517C367.732 220.517 368.041 220.453 368.289 220.326C368.543 220.199 368.748 220.033 368.905 219.827C369.069 219.622 369.193 219.389 369.277 219.129C369.368 218.869 369.441 218.603 369.495 218.331C369.259 218.621 368.972 218.842 368.633 218.993C368.295 219.138 367.959 219.21 367.626 219.21C367.269 219.21 366.973 219.144 366.737 219.011C366.501 218.872 366.32 218.69 366.193 218.467C366.072 218.237 365.999 217.971 365.975 217.668C365.957 217.366 365.984 217.051 366.057 216.725C366.129 216.38 366.238 216.057 366.383 215.754C366.529 215.452 366.71 215.192 366.928 214.974C367.145 214.75 367.399 214.575 367.69 214.448C367.986 214.321 368.325 214.257 368.706 214.257C368.857 214.257 369.005 214.279 369.15 214.321C369.302 214.363 369.441 214.424 369.568 214.502C369.701 214.581 369.816 214.681 369.912 214.802C370.015 214.923 370.091 215.059 370.139 215.21H370.157L370.33 214.384ZM377.511 219.764L377.411 220.217H372.876L372.975 219.764H377.511ZM382.047 219.764L381.947 220.217H377.411L377.511 219.764H382.047ZM386.583 219.764L386.483 220.217H381.947L382.047 219.764H386.583ZM391.119 219.764L391.019 220.217H386.483L386.583 219.764H391.119ZM395.655 219.764L395.555 220.217H391.019L391.119 219.764H395.655ZM397.333 219.356C397.272 219.622 397.163 219.833 397.006 219.991C396.849 220.154 396.668 220.266 396.462 220.326L396.535 219.991C396.619 219.942 396.701 219.876 396.779 219.791C396.864 219.706 396.928 219.573 396.97 219.392L397.033 219.083H396.725L396.897 218.285H397.56L397.333 219.356ZM287.368 227.614C287.374 228.019 287.468 228.306 287.649 228.476C287.837 228.639 288.136 228.721 288.548 228.721C288.747 228.721 288.922 228.696 289.074 228.648C289.231 228.6 289.364 228.536 289.473 228.458C289.588 228.373 289.678 228.279 289.745 228.176C289.818 228.074 289.866 227.965 289.89 227.85C289.939 227.62 289.899 227.451 289.772 227.342C289.651 227.227 289.485 227.139 289.273 227.079C289.062 227.012 288.832 226.958 288.584 226.915C288.336 226.867 288.109 226.797 287.903 226.707C287.698 226.616 287.538 226.486 287.423 226.317C287.314 226.147 287.293 225.908 287.359 225.6C287.444 225.207 287.655 224.886 287.994 224.638C288.333 224.384 288.765 224.257 289.291 224.257C289.799 224.257 290.186 224.372 290.453 224.602C290.719 224.826 290.831 225.204 290.788 225.736H290.235C290.259 225.373 290.174 225.119 289.981 224.974C289.787 224.823 289.521 224.747 289.183 224.747C288.838 224.747 288.557 224.823 288.339 224.974C288.127 225.119 287.997 225.313 287.949 225.555C287.913 225.712 287.928 225.842 287.994 225.945C288.061 226.048 288.157 226.132 288.284 226.199C288.411 226.265 288.56 226.323 288.729 226.371C288.898 226.413 289.071 226.459 289.246 226.507C289.427 226.549 289.6 226.601 289.763 226.661C289.932 226.722 290.078 226.803 290.199 226.906C290.32 227.003 290.407 227.127 290.462 227.278C290.516 227.429 290.519 227.617 290.471 227.841C290.422 228.064 290.332 228.264 290.199 228.439C290.072 228.609 289.908 228.751 289.709 228.866C289.515 228.981 289.294 229.065 289.046 229.12C288.805 229.18 288.545 229.21 288.266 229.21C287.988 229.21 287.749 229.168 287.55 229.083C287.356 229.005 287.199 228.893 287.078 228.748C286.957 228.603 286.872 228.433 286.824 228.24C286.782 228.046 286.779 227.838 286.815 227.614H287.368ZM291.36 229.083L292.748 222.552H293.292L291.904 229.083H291.36ZM293.211 229.083L294.209 224.384H294.753L293.756 229.083H293.211ZM294.4 223.359L294.572 222.552H295.171L294.998 223.359H294.4ZM295.104 229.083L296.492 222.552H297.037L296.175 226.616L298.951 224.384H299.695L297.572 226.081L298.905 229.083H298.298L297.091 226.462L296.03 227.305L295.649 229.083H295.104ZM305.803 226.616C305.549 226.713 305.301 226.776 305.059 226.807C304.823 226.837 304.584 226.861 304.342 226.879C303.919 226.909 303.571 227.003 303.299 227.16C303.033 227.318 302.867 227.556 302.8 227.877C302.77 228.022 302.773 228.149 302.809 228.258C302.845 228.361 302.903 228.448 302.981 228.521C303.066 228.588 303.166 228.639 303.281 228.675C303.396 228.706 303.517 228.721 303.644 228.721C303.861 228.721 304.076 228.693 304.288 228.639C304.506 228.585 304.705 228.503 304.887 228.394C305.074 228.279 305.234 228.137 305.367 227.968C305.5 227.792 305.594 227.587 305.649 227.351L305.803 226.616ZM304.941 226.344C305.044 226.332 305.168 226.314 305.313 226.289C305.464 226.265 305.591 226.232 305.694 226.19C305.797 226.147 305.866 226.078 305.903 225.981C305.945 225.878 305.975 225.784 305.993 225.7C306.024 225.561 306.03 225.434 306.011 225.319C305.993 225.204 305.945 225.104 305.866 225.019C305.794 224.935 305.688 224.868 305.549 224.82C305.416 224.771 305.243 224.747 305.032 224.747C304.657 224.747 304.33 224.823 304.052 224.974C303.774 225.125 303.568 225.403 303.435 225.809H302.882C302.96 225.53 303.072 225.295 303.217 225.101C303.369 224.901 303.544 224.741 303.744 224.62C303.943 224.493 304.161 224.403 304.397 224.348C304.639 224.288 304.887 224.257 305.141 224.257C305.376 224.257 305.591 224.285 305.785 224.339C305.984 224.387 306.148 224.469 306.275 224.584C306.408 224.693 306.498 224.841 306.547 225.028C306.595 225.216 306.592 225.446 306.538 225.718L305.993 228.276C305.945 228.488 305.951 228.624 306.011 228.684C306.078 228.739 306.235 228.724 306.483 228.639L306.392 229.065C306.35 229.077 306.284 229.096 306.193 229.12C306.108 229.144 306.027 229.156 305.948 229.156C305.869 229.156 305.791 229.147 305.712 229.129C305.537 229.099 305.437 229.017 305.413 228.884C305.389 228.745 305.392 228.594 305.422 228.43C305.138 228.684 304.832 228.878 304.506 229.011C304.185 229.144 303.852 229.21 303.508 229.21C303.302 229.21 303.108 229.183 302.927 229.129C302.752 229.074 302.604 228.99 302.483 228.875C302.362 228.76 302.277 228.621 302.229 228.458C302.18 228.288 302.18 228.089 302.229 227.859C302.392 227.061 303.039 226.589 304.17 226.444L304.941 226.344ZM308.893 229.102C308.827 229.114 308.733 229.135 308.612 229.165C308.497 229.195 308.373 229.21 308.24 229.21C307.968 229.21 307.774 229.144 307.659 229.011C307.551 228.872 307.532 228.627 307.605 228.276L308.331 224.838H307.669L307.768 224.384H308.431L308.712 223.078H309.256L308.975 224.384H309.855L309.755 224.838H308.875L308.195 228.058C308.17 228.173 308.152 228.273 308.14 228.358C308.128 228.442 308.131 228.512 308.149 228.566C308.173 228.621 308.213 228.66 308.267 228.684C308.328 228.709 308.415 228.721 308.53 228.721C308.603 228.721 308.675 228.715 308.748 228.702C308.827 228.69 308.905 228.675 308.984 228.657L308.893 229.102ZM313.504 229.764L313.405 230.217H308.869L308.969 229.764H313.504ZM318.04 229.764L317.941 230.217H313.405L313.504 229.764H318.04ZM322.576 229.764L322.476 230.217H317.941L318.04 229.764H322.576ZM327.112 229.764L327.012 230.217H322.476L322.576 229.764H327.112ZM331.648 229.764L331.548 230.217H327.012L327.112 229.764H331.648ZM336.184 229.764L336.084 230.217H331.548L331.648 229.764H336.184ZM340.72 229.764L340.62 230.217H336.084L336.184 229.764H340.72ZM345.255 229.764L345.156 230.217H340.62L340.72 229.764H345.255ZM346.326 229.083L346.498 228.285H347.16L346.988 229.083H346.326ZM351.835 223.622C351.781 223.888 351.672 224.103 351.509 224.266C351.351 224.424 351.17 224.533 350.964 224.593L351.037 224.257C351.122 224.209 351.206 224.142 351.291 224.058C351.376 223.973 351.436 223.84 351.472 223.659L351.536 223.35H351.227L351.4 222.552H352.062L351.835 223.622ZM350.465 223.622C350.411 223.888 350.302 224.103 350.139 224.266C349.982 224.424 349.8 224.533 349.595 224.593L349.667 224.257C349.752 224.209 349.836 224.142 349.921 224.058C350.006 223.973 350.066 223.84 350.103 223.659L350.166 223.35H349.858L350.03 222.552H350.692L350.465 223.622Z" fill="black"/>
<path d="M29.3184 47V39.0829H31.8736C32.4355 39.0829 32.9045 39.1911 33.2808 39.4076C33.6596 39.6215 33.9444 39.9128 34.1351 40.2813C34.3284 40.6498 34.4251 41.0648 34.4251 41.5261C34.4251 41.9874 34.3297 42.4036 34.139 42.7747C33.9483 43.1432 33.6648 43.4358 33.2885 43.6522C32.9122 43.8661 32.4445 43.9731 31.8852 43.9731H29.875V43.3237H31.8659C32.2808 43.3237 32.6249 43.2463 32.8981 43.0917C33.1713 42.9345 33.3748 42.7206 33.5089 42.45C33.6455 42.1794 33.7137 41.8714 33.7137 41.5261C33.7137 41.1807 33.6455 40.8728 33.5089 40.6021C33.3748 40.3315 33.17 40.1189 32.8942 39.9643C32.621 39.8097 32.2744 39.7323 31.8543 39.7323H30.0413V47H29.3184ZM36.6672 39.0829V47H35.9791V39.0829H36.6672ZM40.1464 47.1353C39.7882 47.1353 39.4609 47.0657 39.1645 46.9266C38.8681 46.7848 38.6323 46.5812 38.4571 46.3158C38.2818 46.0477 38.1942 45.723 38.1942 45.3416C38.1942 45.0478 38.2496 44.8004 38.3604 44.5994C38.4712 44.3983 38.6284 44.2334 38.832 44.1045C39.0356 43.9757 39.2766 43.8739 39.5549 43.7991C39.8333 43.7244 40.1399 43.6664 40.475 43.6252C40.8074 43.5839 41.0884 43.5479 41.3177 43.5169C41.5497 43.486 41.7262 43.437 41.8473 43.37C41.9685 43.303 42.029 43.1948 42.029 43.0453V42.9061C42.029 42.5015 41.9079 42.1832 41.6656 41.9513C41.426 41.7168 41.0806 41.5995 40.6296 41.5995C40.2018 41.5995 39.8526 41.6936 39.582 41.8817C39.314 42.0699 39.1258 42.2915 39.0176 42.5466L38.3643 42.3108C38.4983 41.9861 38.6838 41.7271 38.9209 41.5338C39.158 41.3379 39.4235 41.1975 39.7173 41.1124C40.0111 41.0248 40.3088 40.981 40.6103 40.981C40.8371 40.981 41.0729 41.0106 41.3177 41.0699C41.5651 41.1292 41.7945 41.2323 42.0058 41.3792C42.2172 41.5235 42.3885 41.7258 42.52 41.9861C42.6514 42.2438 42.7171 42.5711 42.7171 42.968V47H42.029V46.0606H41.9865C41.904 46.2359 41.7816 46.406 41.6193 46.5709C41.4569 46.7358 41.2533 46.8711 41.0085 46.9768C40.7636 47.0825 40.4763 47.1353 40.1464 47.1353ZM40.2392 46.5052C40.6051 46.5052 40.9221 46.424 41.1902 46.2616C41.4582 46.0993 41.6644 45.8841 41.8087 45.6161C41.9556 45.3454 42.029 45.0478 42.029 44.7231V43.8649C41.9775 43.9138 41.8911 43.9576 41.77 43.9963C41.6515 44.035 41.5136 44.0697 41.3564 44.1007C41.2017 44.129 41.0471 44.1535 40.8925 44.1741C40.7379 44.1947 40.5987 44.2128 40.475 44.2282C40.1399 44.2695 39.8539 44.3339 39.6168 44.4215C39.3797 44.5092 39.198 44.6303 39.0717 44.7849C38.9454 44.937 38.8823 45.1328 38.8823 45.3725C38.8823 45.7333 39.0111 46.0129 39.2689 46.2114C39.5266 46.4072 39.85 46.5052 40.2392 46.5052ZM46.8864 41.0622V41.6614H44.0528V41.0622H46.8864ZM44.938 39.6396H45.63V45.4498C45.63 45.6972 45.6725 45.8918 45.7576 46.0336C45.8426 46.1727 45.9534 46.2719 46.09 46.3312C46.2266 46.3879 46.3722 46.4163 46.5268 46.4163C46.6171 46.4163 46.6944 46.4111 46.7588 46.4008C46.8232 46.3879 46.8799 46.375 46.9289 46.3621L47.0758 46.9845C47.0088 47.0103 46.9263 47.0335 46.8284 47.0541C46.7304 47.0773 46.6093 47.0889 46.465 47.0889C46.2124 47.0889 45.9689 47.0335 45.7344 46.9227C45.5024 46.8119 45.3117 46.6469 45.1622 46.4279C45.0128 46.2088 44.938 45.9369 44.938 45.6122V39.6396ZM50.7879 41.0622V41.6614H47.9543V41.0622H50.7879ZM48.8395 39.6396H49.5315V45.4498C49.5315 45.6972 49.574 45.8918 49.6591 46.0336C49.7441 46.1727 49.855 46.2719 49.9915 46.3312C50.1281 46.3879 50.2737 46.4163 50.4284 46.4163C50.5186 46.4163 50.5959 46.4111 50.6603 46.4008C50.7248 46.3879 50.7815 46.375 50.8304 46.3621L50.9773 46.9845C50.9103 47.0103 50.8278 47.0335 50.7299 47.0541C50.632 47.0773 50.5108 47.0889 50.3665 47.0889C50.114 47.0889 49.8704 47.0335 49.6359 46.9227C49.4039 46.8119 49.2132 46.6469 49.0638 46.4279C48.9143 46.2088 48.8395 45.9369 48.8395 45.6122V39.6396ZM54.7938 41.0622V41.6614H51.8751V41.0622H54.7938ZM52.7875 47V40.1924C52.7875 39.8728 52.8609 39.6035 53.0078 39.3844C53.1573 39.1654 53.3519 38.9991 53.5915 38.8857C53.8312 38.7723 54.0851 38.7157 54.3531 38.7157C54.5335 38.7157 54.683 38.7311 54.8015 38.762C54.9227 38.7904 55.018 38.8187 55.0876 38.8471L54.8866 39.4501C54.835 39.4347 54.7719 39.4166 54.6972 39.396C54.6224 39.3754 54.5284 39.3651 54.415 39.3651C54.116 39.3651 53.8853 39.4489 53.723 39.6164C53.5606 39.7839 53.4794 40.0236 53.4794 40.3354L53.4756 47H52.7875ZM58.2305 47.1237C57.7176 47.1237 57.264 46.9936 56.8697 46.7333C56.478 46.473 56.1713 46.1134 55.9497 45.6547C55.728 45.1934 55.6172 44.6612 55.6172 44.0581C55.6172 43.4499 55.728 42.9152 55.9497 42.4539C56.1713 41.99 56.478 41.6292 56.8697 41.3714C57.264 41.1111 57.7176 40.981 58.2305 40.981C58.7433 40.981 59.1956 41.1111 59.5874 41.3714C59.9791 41.6317 60.2858 41.9925 60.5074 42.4539C60.7316 42.9152 60.8437 43.4499 60.8437 44.0581C60.8437 44.6612 60.7329 45.1934 60.5113 45.6547C60.2896 46.1134 59.9817 46.473 59.5874 46.7333C59.1956 46.9936 58.7433 47.1237 58.2305 47.1237ZM58.2305 46.4936C58.6428 46.4936 58.992 46.3828 59.2781 46.1611C59.5642 45.9395 59.7806 45.6444 59.9275 45.2759C60.077 44.9073 60.1518 44.5014 60.1518 44.0581C60.1518 43.6149 60.077 43.2077 59.9275 42.8366C59.7806 42.4654 59.5642 42.1678 59.2781 41.9436C58.992 41.7194 58.6428 41.6072 58.2305 41.6072C57.8207 41.6072 57.4715 41.7194 57.1828 41.9436C56.8968 42.1678 56.679 42.4654 56.5295 42.8366C56.3826 43.2077 56.3092 43.6149 56.3092 44.0581C56.3092 44.5014 56.3826 44.9073 56.5295 45.2759C56.679 45.6444 56.8968 45.9395 57.1828 46.1611C57.4689 46.3828 57.8181 46.4936 58.2305 46.4936ZM62.3543 47V41.0622H63.0231V41.9745H63.0733C63.1919 41.6755 63.398 41.4346 63.6918 41.2516C63.9882 41.066 64.3233 40.9733 64.6969 40.9733C64.7536 40.9733 64.8168 40.9746 64.8864 40.9771C64.9559 40.9797 65.0139 40.9823 65.0603 40.9849V41.6846C65.0294 41.6794 64.9753 41.6717 64.898 41.6614C64.8206 41.6511 64.7369 41.6459 64.6467 41.6459C64.3374 41.6459 64.0617 41.7116 63.8194 41.8431C63.5797 41.9719 63.3903 42.151 63.2511 42.3804C63.112 42.6098 63.0424 42.8714 63.0424 43.1652V47H62.3543ZM66.2346 47V41.0622H66.9033V41.9745H66.9652C67.0837 41.6678 67.2809 41.4268 67.5566 41.2516C67.835 41.0738 68.1687 40.9849 68.5579 40.9849C68.9677 40.9849 69.304 41.0815 69.5668 41.2748C69.8323 41.4655 70.0307 41.7284 70.1622 42.0634H70.2124C70.3464 41.7335 70.5642 41.4719 70.8657 41.2787C71.1699 41.0828 71.5384 40.9849 71.9714 40.9849C72.5229 40.9849 72.9584 41.1588 73.278 41.5067C73.5976 41.8521 73.7573 42.3572 73.7573 43.0221V47H73.0692V43.0221C73.0692 42.5531 72.9494 42.2013 72.7097 41.9668C72.47 41.7322 72.1543 41.615 71.7626 41.615C71.309 41.615 70.9598 41.7541 70.715 42.0325C70.4701 42.3108 70.3477 42.6639 70.3477 43.0917V47H69.6442V42.9603C69.6442 42.5582 69.5321 42.2335 69.3078 41.9861C69.0836 41.7387 68.7679 41.615 68.3607 41.615C68.0875 41.615 67.8414 41.682 67.6224 41.816C67.4059 41.95 67.2345 42.1369 67.1082 42.3765C66.9845 42.6136 66.9227 42.8868 66.9227 43.1961V47H66.2346ZM77.9797 47.1237C77.4256 47.1237 76.9463 46.9948 76.5417 46.7371C76.137 46.4768 75.8239 46.1173 75.6023 45.6586C75.3832 45.1973 75.2737 44.6664 75.2737 44.0659C75.2737 43.468 75.3832 42.9371 75.6023 42.4732C75.8239 42.0067 76.1293 41.642 76.5185 41.3792C76.9102 41.1137 77.3625 40.981 77.8754 40.981C78.1975 40.981 78.5081 41.0403 78.807 41.1588C79.106 41.2748 79.374 41.4539 79.6111 41.6962C79.8508 41.9358 80.0402 42.2387 80.1794 42.6046C80.3185 42.968 80.3881 43.3984 80.3881 43.8958V44.236H75.7492V43.629H79.6845C79.6845 43.2476 79.6072 42.9049 79.4526 42.6008C79.3005 42.2941 79.0879 42.0518 78.8147 41.874C78.5441 41.6962 78.231 41.6072 77.8754 41.6072C77.4991 41.6072 77.1679 41.7078 76.8819 41.9088C76.5958 42.1098 76.3716 42.3752 76.2092 42.7051C76.0494 43.035 75.9682 43.3958 75.9657 43.7875V44.1509C75.9657 44.6226 76.0468 45.0349 76.2092 45.388C76.3741 45.7385 76.6074 46.0104 76.9089 46.2037C77.2104 46.3969 77.5674 46.4936 77.9797 46.4936C78.2606 46.4936 78.5068 46.4498 78.7181 46.3621C78.932 46.2745 79.1111 46.1573 79.2554 46.0104C79.4023 45.8609 79.5132 45.6972 79.5879 45.5194L80.2412 45.732C80.151 45.982 80.0028 46.2127 79.7966 46.424C79.593 46.6353 79.3379 46.8054 79.0312 46.9343C78.7271 47.0606 78.3766 47.1237 77.9797 47.1237ZM82.5926 43.2889V47H81.9045V41.0622H82.5732V41.9938H82.6351C82.7743 41.6897 82.9907 41.4462 83.2845 41.2632C83.5809 41.0776 83.9469 40.9849 84.3824 40.9849C84.7819 40.9849 85.1324 41.0686 85.4339 41.2361C85.738 41.4011 85.9738 41.6446 86.1413 41.9668C86.3114 42.2889 86.3965 42.6845 86.3965 43.1536V47H85.7084V43.1961C85.7084 42.709 85.5718 42.3237 85.2986 42.0402C85.028 41.7567 84.6646 41.615 84.2085 41.615C83.8966 41.615 83.6196 41.682 83.3773 41.816C83.1351 41.95 82.9431 42.1433 82.8013 42.3959C82.6621 42.6459 82.5926 42.9435 82.5926 43.2889ZM91.9584 43.2889V47H91.2703V41.0622H91.939V41.9938H92.0009C92.1401 41.6897 92.3565 41.4462 92.6503 41.2632C92.9467 41.0776 93.3127 40.9849 93.7482 40.9849C94.1477 40.9849 94.4982 41.0686 94.7997 41.2361C95.1038 41.4011 95.3396 41.6446 95.5071 41.9668C95.6772 42.2889 95.7623 42.6845 95.7623 43.1536V47H95.0742V43.1961C95.0742 42.709 94.9376 42.3237 94.6644 42.0402C94.3938 41.7567 94.0304 41.615 93.5743 41.615C93.2624 41.615 92.9854 41.682 92.7431 41.816C92.5009 41.95 92.3089 42.1433 92.1671 42.3959C92.0279 42.6459 91.9584 42.9435 91.9584 43.2889ZM99.2328 47.1353C98.8746 47.1353 98.5473 47.0657 98.2509 46.9266C97.9545 46.7848 97.7187 46.5812 97.5434 46.3158C97.3682 46.0477 97.2806 45.723 97.2806 45.3416C97.2806 45.0478 97.336 44.8004 97.4468 44.5994C97.5576 44.3983 97.7148 44.2334 97.9184 44.1045C98.122 43.9757 98.363 43.8739 98.6413 43.7991C98.9197 43.7244 99.2263 43.6664 99.5614 43.6252C99.8938 43.5839 100.175 43.5479 100.404 43.5169C100.636 43.486 100.813 43.437 100.934 43.37C101.055 43.303 101.115 43.1948 101.115 43.0453V42.9061C101.115 42.5015 100.994 42.1832 100.752 41.9513C100.512 41.7168 100.167 41.5995 99.716 41.5995C99.2882 41.5995 98.939 41.6936 98.6684 41.8817C98.4004 42.0699 98.2122 42.2915 98.104 42.5466L97.4507 42.3108C97.5847 41.9861 97.7702 41.7271 98.0073 41.5338C98.2444 41.3379 98.5099 41.1975 98.8037 41.1124C99.0975 41.0248 99.3951 40.981 99.6967 40.981C99.9235 40.981 100.159 41.0106 100.404 41.0699C100.652 41.1292 100.881 41.2323 101.092 41.3792C101.304 41.5235 101.475 41.7258 101.606 41.9861C101.738 42.2438 101.804 42.5711 101.804 42.968V47H101.115V46.0606H101.073C100.99 46.2359 100.868 46.406 100.706 46.5709C100.543 46.7358 100.34 46.8711 100.095 46.9768C99.85 47.0825 99.5627 47.1353 99.2328 47.1353ZM99.3256 46.5052C99.6915 46.5052 100.009 46.424 100.277 46.2616C100.545 46.0993 100.751 45.8841 100.895 45.6161C101.042 45.3454 101.115 45.0478 101.115 44.7231V43.8649C101.064 43.9138 100.978 43.9576 100.856 43.9963C100.738 44.035 100.6 44.0697 100.443 44.1007C100.288 44.129 100.134 44.1535 99.9789 44.1741C99.8242 44.1947 99.6851 44.2128 99.5614 44.2282C99.2263 44.2695 98.9403 44.3339 98.7032 44.4215C98.4661 44.5092 98.2844 44.6303 98.1581 44.7849C98.0318 44.937 97.9687 45.1328 97.9687 45.3725C97.9687 45.7333 98.0975 46.0129 98.3553 46.2114C98.613 46.4072 98.9364 46.5052 99.3256 46.5052ZM99.7585 40.3702C99.5292 40.3702 99.3204 40.3187 99.1323 40.2156C98.9467 40.1125 98.7985 39.9733 98.6877 39.7981C98.5795 39.6202 98.5253 39.4218 98.5253 39.2027C98.5253 38.9811 98.5795 38.7801 98.6877 38.5997C98.7985 38.4167 98.9467 38.2711 99.1323 38.1628C99.3204 38.0546 99.5292 38.0005 99.7585 38.0005C99.9879 38.0005 100.194 38.0546 100.377 38.1628C100.563 38.2711 100.71 38.4167 100.818 38.5997C100.926 38.7801 100.98 38.9811 100.98 39.2027C100.98 39.4218 100.926 39.6202 100.818 39.7981C100.71 39.9733 100.563 40.1125 100.377 40.2156C100.194 40.3187 99.9879 40.3702 99.7585 40.3702ZM99.7585 39.8986C99.9621 39.8986 100.131 39.8277 100.265 39.686C100.399 39.5442 100.466 39.3831 100.466 39.2027C100.466 39.0146 100.399 38.8484 100.265 38.7041C100.131 38.5572 99.9621 38.4837 99.7585 38.4837C99.5549 38.4837 99.3861 38.5572 99.2521 38.7041C99.1181 38.8484 99.0511 39.0146 99.0511 39.2027C99.0511 39.3857 99.1181 39.5481 99.2521 39.6898C99.3861 39.829 99.5549 39.8986 99.7585 39.8986ZM103.634 47V41.0622H104.303V41.9745H104.353C104.472 41.6755 104.678 41.4346 104.972 41.2516C105.268 41.066 105.603 40.9733 105.977 40.9733C106.033 40.9733 106.096 40.9746 106.166 40.9771C106.236 40.9797 106.294 40.9823 106.34 40.9849V41.6846C106.309 41.6794 106.255 41.6717 106.178 41.6614C106.1 41.6511 106.017 41.6459 105.926 41.6459C105.617 41.6459 105.341 41.7116 105.099 41.8431C104.859 41.9719 104.67 42.151 104.531 42.3804C104.392 42.6098 104.322 42.8714 104.322 43.1652V47H103.634ZM110.576 47V41.0622H111.245V41.9745H111.307C111.425 41.6678 111.622 41.4268 111.898 41.2516C112.176 41.0738 112.51 40.9849 112.899 40.9849C113.309 40.9849 113.645 41.0815 113.908 41.2748C114.174 41.4655 114.372 41.7284 114.504 42.0634H114.554C114.688 41.7335 114.906 41.4719 115.207 41.2787C115.511 41.0828 115.88 40.9849 116.313 40.9849C116.864 40.9849 117.3 41.1588 117.619 41.5067C117.939 41.8521 118.099 42.3572 118.099 43.0221V47H117.411V43.0221C117.411 42.5531 117.291 42.2013 117.051 41.9668C116.811 41.7322 116.496 41.615 116.104 41.615C115.65 41.615 115.301 41.7541 115.056 42.0325C114.812 42.3108 114.689 42.6639 114.689 43.0917V47H113.986V42.9603C113.986 42.5582 113.873 42.2335 113.649 41.9861C113.425 41.7387 113.109 41.615 112.702 41.615C112.429 41.615 112.183 41.682 111.964 41.816C111.747 41.95 111.576 42.1369 111.45 42.3765C111.326 42.6136 111.264 42.8868 111.264 43.1961V47H110.576ZM121.579 47.1353C121.221 47.1353 120.893 47.0657 120.597 46.9266C120.301 46.7848 120.065 46.5812 119.89 46.3158C119.714 46.0477 119.627 45.723 119.627 45.3416C119.627 45.0478 119.682 44.8004 119.793 44.5994C119.904 44.3983 120.061 44.2334 120.265 44.1045C120.468 43.9757 120.709 43.8739 120.987 43.7991C121.266 43.7244 121.572 43.6664 121.907 43.6252C122.24 43.5839 122.521 43.5479 122.75 43.5169C122.982 43.486 123.159 43.437 123.28 43.37C123.401 43.303 123.462 43.1948 123.462 43.0453V42.9061C123.462 42.5015 123.34 42.1832 123.098 41.9513C122.858 41.7168 122.513 41.5995 122.062 41.5995C121.634 41.5995 121.285 41.6936 121.014 41.8817C120.746 42.0699 120.558 42.2915 120.45 42.5466L119.797 42.3108C119.931 41.9861 120.116 41.7271 120.353 41.5338C120.591 41.3379 120.856 41.1975 121.15 41.1124C121.444 41.0248 121.741 40.981 122.043 40.981C122.27 40.981 122.505 41.0106 122.75 41.0699C122.998 41.1292 123.227 41.2323 123.438 41.3792C123.65 41.5235 123.821 41.7258 123.952 41.9861C124.084 42.2438 124.15 42.5711 124.15 42.968V47H123.462V46.0606H123.419C123.337 46.2359 123.214 46.406 123.052 46.5709C122.889 46.7358 122.686 46.8711 122.441 46.9768C122.196 47.0825 121.909 47.1353 121.579 47.1353ZM121.672 46.5052C122.038 46.5052 122.355 46.424 122.623 46.2616C122.891 46.0993 123.097 45.8841 123.241 45.6161C123.388 45.3454 123.462 45.0478 123.462 44.7231V43.8649C123.41 43.9138 123.324 43.9576 123.202 43.9963C123.084 44.035 122.946 44.0697 122.789 44.1007C122.634 44.129 122.48 44.1535 122.325 44.1741C122.17 44.1947 122.031 44.2128 121.907 44.2282C121.572 44.2695 121.286 44.3339 121.049 44.4215C120.812 44.5092 120.63 44.6303 120.504 44.7849C120.378 44.937 120.315 45.1328 120.315 45.3725C120.315 45.7333 120.444 46.0129 120.701 46.2114C120.959 46.4072 121.282 46.5052 121.672 46.5052ZM126.668 43.2889V47H125.98V41.0622H126.649V41.9938H126.711C126.85 41.6897 127.066 41.4462 127.36 41.2632C127.657 41.0776 128.022 40.9849 128.458 40.9849C128.857 40.9849 129.208 41.0686 129.51 41.2361C129.814 41.4011 130.049 41.6446 130.217 41.9668C130.387 42.2889 130.472 42.6845 130.472 43.1536V47H129.784V43.1961C129.784 42.709 129.647 42.3237 129.374 42.0402C129.104 41.7567 128.74 41.615 128.284 41.615C127.972 41.615 127.695 41.682 127.453 41.816C127.211 41.95 127.019 42.1433 126.877 42.3959C126.738 42.6459 126.668 42.9435 126.668 43.2889ZM137.746 47.1237C137.192 47.1237 136.713 46.9948 136.308 46.7371C135.904 46.4768 135.591 46.1173 135.369 45.6586C135.15 45.1973 135.04 44.6664 135.04 44.0659C135.04 43.468 135.15 42.9371 135.369 42.4732C135.591 42.0067 135.896 41.642 136.285 41.3792C136.677 41.1137 137.129 40.981 137.642 40.981C137.964 40.981 138.275 41.0403 138.574 41.1588C138.873 41.2748 139.141 41.4539 139.378 41.6962C139.618 41.9358 139.807 42.2387 139.946 42.6046C140.085 42.968 140.155 43.3984 140.155 43.8958V44.236H135.516V43.629H139.451C139.451 43.2476 139.374 42.9049 139.219 42.6008C139.067 42.2941 138.855 42.0518 138.582 41.874C138.311 41.6962 137.998 41.6072 137.642 41.6072C137.266 41.6072 136.935 41.7078 136.649 41.9088C136.363 42.1098 136.138 42.3752 135.976 42.7051C135.816 43.035 135.735 43.3958 135.732 43.7875V44.1509C135.732 44.6226 135.814 45.0349 135.976 45.388C136.141 45.7385 136.374 46.0104 136.676 46.2037C136.977 46.3969 137.334 46.4936 137.746 46.4936C138.027 46.4936 138.274 46.4498 138.485 46.3621C138.699 46.2745 138.878 46.1573 139.022 46.0104C139.169 45.8609 139.28 45.6972 139.355 45.5194L140.008 45.732C139.918 45.982 139.77 46.2127 139.563 46.424C139.36 46.6353 139.105 46.8054 138.798 46.9343C138.494 47.0606 138.143 47.1237 137.746 47.1237ZM141.671 47V41.0622H142.34V41.9745H142.39C142.509 41.6755 142.715 41.4346 143.009 41.2516C143.305 41.066 143.64 40.9733 144.014 40.9733C144.071 40.9733 144.134 40.9746 144.203 40.9771C144.273 40.9797 144.331 40.9823 144.377 40.9849V41.6846C144.346 41.6794 144.292 41.6717 144.215 41.6614C144.138 41.6511 144.054 41.6459 143.964 41.6459C143.654 41.6459 143.379 41.7116 143.136 41.8431C142.897 41.9719 142.707 42.151 142.568 42.3804C142.429 42.6098 142.359 42.8714 142.359 43.1652V47H141.671ZM145.42 47.058C145.268 47.058 145.137 47.0039 145.026 46.8956C144.918 46.7848 144.863 46.6534 144.863 46.5013C144.863 46.3467 144.918 46.2152 145.026 46.107C145.137 45.9988 145.268 45.9446 145.42 45.9446C145.575 45.9446 145.706 45.9988 145.814 46.107C145.923 46.2152 145.977 46.3467 145.977 46.5013C145.977 46.6018 145.951 46.6946 145.899 46.7797C145.85 46.8647 145.783 46.933 145.698 46.9845C145.616 47.0335 145.523 47.058 145.42 47.058ZM148.344 47.058C148.191 47.058 148.06 47.0039 147.949 46.8956C147.841 46.7848 147.787 46.6534 147.787 46.5013C147.787 46.3467 147.841 46.2152 147.949 46.107C148.06 45.9988 148.191 45.9446 148.344 45.9446C148.498 45.9446 148.63 45.9988 148.738 46.107C148.846 46.2152 148.9 46.3467 148.9 46.5013C148.9 46.6018 148.874 46.6946 148.823 46.7797C148.774 46.8647 148.707 46.933 148.622 46.9845C148.539 47.0335 148.447 47.058 148.344 47.058ZM151.267 47.058C151.115 47.058 150.984 47.0039 150.873 46.8956C150.764 46.7848 150.71 46.6534 150.71 46.5013C150.71 46.3467 150.764 46.2152 150.873 46.107C150.984 45.9988 151.115 45.9446 151.267 45.9446C151.422 45.9446 151.553 45.9988 151.661 46.107C151.77 46.2152 151.824 46.3467 151.824 46.5013C151.824 46.6018 151.798 46.6946 151.746 46.7797C151.697 46.8647 151.63 46.933 151.545 46.9845C151.463 47.0335 151.37 47.058 151.267 47.058Z" fill="black"/>
</svg>
